<svg width="592" height="209" viewBox="0 0 592 209" fill="none" xmlns="http://www.w3.org/2000/svg">
<g filter="url(#filter0_d_273_303)">
<path d="M36.1974 102.591L56.2159 62.3723L115.752 83.306L124.064 82.0063L190.509 94.686L158.992 111.242L154.953 104.559L160.722 92.8729L151.203 89.86L129.257 116.079L109.919 123.838L109.185 119.921L67.8748 165.437L50.5034 169.888L48.523 149.239L70.4811 87.5243L44.9557 113.224L34.2836 112.549L36.1974 102.591Z" fill="#FF6B91"/>
<path d="M41.5991 103.81L36.1975 102.591L56.4912 60.126L123.592 81.6117L169.847 90.6027L191.388 94.596L160.893 107.054L157.654 105.169L162.347 90.9313L150.325 89.9509L117.103 113.338L118.453 83.9157L115.28 82.9114L109.919 123.839L102.668 103.732L65.4751 151.043L93.5951 82.9261L93.4768 75.3956L79.9072 71.4688L64.9484 84.5451L45.8471 107.365L65.9312 68.0275L41.5991 103.81Z" fill="#C43865"/>
<path d="M68.2256 69.1218L63.5056 65.171L65.1313 63.2288L118.794 82.549L118.99 85.1909L117.103 113.337L112.121 105.864L114.939 84.277L110.01 83.4536L103.101 91.7077L93.1887 83.4111L93.4769 75.3951L87.1968 74.2671L54.7375 149.487L48.9295 148.754L70.4813 87.5242L75.2141 85.7058L85.7808 73.0818L83.08 72.4726L65.7613 83.5734L68.2256 69.1218Z" fill="#EC3C6A"/>
<path d="M42.0055 103.324L60.3725 76.5859L43.8934 104.904L45.9782 109.126L65.0795 86.3059L70.4812 87.5244L44.9557 113.225L34.2836 112.549L42.0055 103.324Z" fill="#FFCAE9"/>
<path d="M102.668 103.732L107.638 116.974L68.635 157.817L62.499 152.681L50.9754 170.284L54.7374 149.487L76.2634 99.7958L58.2511 149.125L63.7183 151.224L102.668 103.732Z" fill="#FFCAE9"/>
<path d="M112.121 105.864L109.919 123.838L117.103 113.337L112.121 105.864Z" fill="#FFCAE9"/>
<path d="M144.701 97.6287L125.887 112.433L129.257 116.079L144.701 97.6287Z" fill="#FFCAE9"/>
<path d="M158.992 111.242L157.182 104.773L160.893 107.053L187.127 96.8092L158.992 111.242Z" fill="#FFCAE9"/>
</g>
<g filter="url(#filter1_d_273_303)">
<path d="M363.495 135.96L370.964 79.6858L359.264 79.711L344.807 93.4764L352.099 137.833L363.495 135.96Z" fill="#FF6B91"/>
<path d="M304.043 109.761L294.23 111.281L295.468 88.3002L357.332 78.1304L304.043 109.761Z" fill="#FF6B91"/>
<path d="M372.546 140.165L384.899 83.0885L370.356 75.9885L357.332 78.1295L303.998 109.675L299.114 110.478L318.237 114.927L344.807 93.4755L359.264 79.7101L370.964 79.6849L363.495 135.959L372.546 140.165Z" fill="#C43865"/>
<path d="M372.546 140.166L358.697 157.628L352.099 137.833L363.495 135.96L372.546 140.166Z" fill="#FFCAE9"/>
<path d="M298.288 125.799L318.237 114.927L299.114 110.479L294.23 111.281L298.288 125.799Z" fill="#FFCAE9"/>
<path d="M293.123 94.38L295.468 88.3002L274 89.9311L280.403 98.3692L293.123 94.38Z" fill="#FFCAE9"/>
<path d="M346.802 146.295L358.697 157.627L351.795 135.984L344.807 93.4755L334.322 100.893L346.802 146.295Z" fill="#FFF6FF"/>
</g>
<g filter="url(#filter2_d_273_303)">
<path d="M470.32 118.334L464 88.5419H488.375L515.459 75L540.738 88.5419L531.71 111.112L515.459 88.5419L494.695 93.9587L488.375 130.07L470.32 118.334Z" fill="#FF6B91"/>
<path d="M482.056 117.432L480.25 89.4449V85.8337H494.695L506.431 79.5141L494.695 93.9589L489.278 123.751L482.056 117.432Z" fill="#C43865"/>
<path d="M531.71 89.4449L513.654 81.3197L531.71 79.5141L540.738 84.0281V88.5421L534.418 103.89L531.71 99.3756V89.4449Z" fill="#C43865"/>
<path d="M475.736 117.432L469.417 85.8338L470.32 82.7934L464.903 82.2226L464 87.6394L470.32 118.334L488.375 130.071L489.278 123.751L482.056 117.432H475.736Z" fill="#FFCAE9"/>
<path d="M525.39 102.084L531.71 99.3757L534.418 103.89L531.71 111.112L525.39 102.084Z" fill="#FFCAE9"/>
<path d="M480.25 124.654L475.736 117.432L469.417 85.8338L470.32 83.1254L464.903 82.2226L464 87.6394L470.32 118.334L480.25 124.654Z" fill="#FFF6FF"/>
</g>
<g filter="url(#filter3_di_273_303)">
<path d="M117.917 70.6721L121.373 74.8961L117.789 90.1281L96.669 86.1601L89.757 73.8721C90.141 73.2321 90.525 72.7201 90.525 72.7201L89.629 70.8001C89.629 70.8001 88.861 70.8001 88.861 69.5201C88.733 68.1121 89.117 67.6001 88.861 67.0881C88.477 66.7041 87.581 65.9361 87.581 65.9361L86.429 65.1681C86.429 65.1681 85.789 65.4241 85.533 64.1441C85.277 62.8641 86.429 62.0961 85.533 62.2241C85.021 62.2241 84.381 62.6081 83.869 62.9921L81.181 58.2561L80.797 69.6481L76.445 89.4881H62.493L53.917 81.0401L54.557 69.3921C54.813 69.2641 55.197 69.0081 55.709 68.7521C57.885 67.3441 58.653 70.9281 57.885 67.3441C57.117 63.6321 56.861 62.7361 56.861 62.7361C56.861 62.7361 56.861 61.2001 56.861 61.0721C56.861 60.9441 58.781 59.6641 58.269 58.0001C57.629 56.3361 57.117 55.9521 56.861 54.9281C56.605 54.1601 56.221 51.9841 55.709 50.8321L56.861 31.6321L61.597 29.9681C61.597 29.9681 59.293 27.7921 57.117 25.7441L58.141 8.20808L73.117 0.400085L108.957 2.83208L113.181 7.18409L103.581 13.2001L115.741 9.87209L121.117 15.3761L113.821 42.5121L103.453 53.0081L115.357 67.6001C111.005 66.3201 103.325 64.1441 103.325 64.1441L117.917 70.6721ZM93.213 39.6961L100.381 25.3601L92.061 19.6001L81.053 18.0641L80.541 36.2401L93.213 39.6961ZM173.096 69.6481L182.44 72.3361L187.688 78.8641L181.16 89.8721H143.016H135.72L122.152 60.8161L123.304 49.1681C123.304 49.1681 123.688 44.4321 124.712 43.4081C125.736 42.3841 125.352 41.3601 125.864 39.1841C126.376 37.0081 128.296 37.6481 128.168 37.3921C128.04 37.0081 127.912 36.2401 127.272 33.4241C126.888 31.8881 125.992 31.5041 124.968 31.3761L126.376 17.8081L135.72 17.4241L126.76 13.9681L127.144 10.1281L137.512 0.400085H159.4C160.296 1.80809 161.704 3.60009 163.112 3.47208C165.288 3.21609 164.52 1.16809 166.952 2.57609C168.232 3.21609 169.256 1.80809 170.024 0.400085H178.984L187.688 17.9361L182.056 21.6481H154.024V32.5281H175.528V42.1281L171.432 51.9841L154.024 54.8001V64.7841L173.352 61.0721L179.368 68.4961L173.096 69.6481ZM246.112 48.6561L261.6 41.2321L270.816 53.0081L266.336 70.2881C263.008 71.8241 262.88 72.9761 262.88 72.9761C262.88 72.9761 263.264 72.4641 262.624 74.1281C261.984 75.6641 261.216 77.2001 261.216 77.2001C261.216 77.2001 261.728 76.5601 261.472 78.3521C261.216 80.1441 260.32 81.8081 260.32 81.8081V84.2401L262.496 85.6481L259.296 98.0641L250.464 103.568L237.024 88.9761L216.288 87.3121L197.856 75.6641L194.656 58.6401L201.312 56.5921L194.016 55.1841L188.256 23.3121L191.968 19.4721C192.864 19.8561 193.632 19.9841 193.632 19.9841L195.424 18.1921H196.832C196.832 18.1921 197.856 18.7041 201.056 14.8641C204.256 11.0241 201.056 14.8641 202.208 11.5361C202.848 9.61609 202.592 9.36008 202.08 9.23209L206.688 4.62408L248.544 0.784088L257.12 9.48809L241.888 10.7681L261.088 13.4561L273.632 26.2561L247.776 39.1841L241.12 27.4081L224.992 30.3521L215.136 39.1841L223.584 61.0721L242.4 59.6641L244.32 54.0321L249.568 53.3921L244.96 51.9841L246.112 48.6561ZM304.476 74.3841C304.476 74.3841 305.372 75.1521 305.628 75.6641C305.884 76.0481 307.036 78.0961 307.036 78.0961L298.076 90.1281H285.148L275.42 83.9841L275.804 75.0241L283.612 72.2081L276.06 70.9281L276.7 59.1521C278.108 58.5121 279.388 57.7441 279.004 56.3361C278.62 54.4161 277.852 53.9041 277.852 53.0081C277.852 52.1121 278.876 50.4481 279.132 48.6561C279.26 46.9921 280.668 47.5041 279.516 45.2001C278.236 42.8961 277.596 41.3601 277.596 41.3601L279.132 11.2801L294.748 0.400085L298.332 6.67209C298.588 7.05609 297.564 7.44009 298.332 8.84809C299.1 10.3841 299.228 11.1521 299.228 12.4321C299.228 13.5841 302.3 13.7121 302.428 13.9681L307.036 22.1601V34.7041L298.332 37.6481L307.036 39.3121V66.5761C306.14 66.8321 304.988 67.2161 304.476 68.2401C303.452 70.0321 304.476 70.6721 304.476 71.6961C304.604 72.7201 304.476 74.3841 304.476 74.3841ZM369.27 77.5841C369.654 80.4001 369.654 80.4001 369.654 80.4001L367.862 86.2881L322.678 90.1281L318.326 83.2161L324.726 80.1441C324.726 80.1441 320.118 80.2721 316.534 80.5281L310.006 70.1601L322.166 58.0001L348.15 65.8081L348.406 60.1761L326.262 51.2161L310.134 27.2801L313.718 21.3921C314.23 21.1361 314.87 20.8801 315.51 20.6241C317.43 19.9841 316.662 20.2401 317.558 18.8321C318.198 17.9361 317.942 17.9361 317.686 17.9361C318.07 17.8081 318.966 17.1681 318.838 16.4001C318.71 15.5041 319.606 14.4801 319.606 13.8401C319.606 13.2001 321.142 12.8161 321.142 12.8161L322.294 11.4081C322.294 11.4081 322.294 10.3841 321.398 8.72009C321.398 8.59209 321.398 8.46409 321.27 8.46409L326.134 0.400085L365.686 2.19209L368.758 6.28809L358.646 7.95209L371.318 10.1281L377.206 18.3201C377.206 18.3201 366.198 27.2801 365.43 27.2801L334.966 19.8561L336.63 29.9681L345.974 33.5521L351.734 40.4641L352.502 36.1121L370.55 43.1521L378.102 53.2641L374.134 66.4481L372.598 66.9601L371.574 69.2641L371.19 71.6961L369.91 73.3601C369.27 74.5121 369.142 75.0241 369.27 75.9201C369.398 76.8161 368.758 74.6401 369.27 77.5841ZM446.846 0.784088L453.118 10.5121L438.782 25.4881L428.158 24.4641L428.414 30.4801L422.27 36.6241L428.798 37.5201L430.206 72.3361L421.246 89.7441H408.958L401.534 77.3281L402.046 64.4001L402.174 62.7361C402.302 62.4801 402.686 62.2241 402.942 61.8401C406.014 59.1521 407.166 58.8961 406.142 57.6161C405.118 56.4641 402.686 55.6961 402.942 53.5201C403.198 51.4721 403.198 48.4001 403.582 48.0161C403.966 47.5041 405.246 46.9921 403.582 45.2001C403.326 44.9441 403.07 44.6881 402.814 44.4321L403.582 23.6961L388.862 24.4641L377.214 16.6561L379.902 9.10409L390.014 7.31209L381.182 5.64809L382.974 0.784088H446.846ZM503.721 69.6481L513.065 72.3361L518.313 78.8641L511.785 89.8721H473.641H466.345L452.777 60.8161L453.929 49.1681C453.929 49.1681 454.313 44.4321 455.337 43.4081C456.361 42.3841 455.977 41.3601 456.489 39.1841C457.001 37.0081 458.921 37.6481 458.793 37.3921C458.665 37.0081 458.537 36.2401 457.897 33.4241C457.513 31.8881 456.617 31.5041 455.593 31.3761L457.001 17.8081L466.345 17.4241L457.385 13.9681L457.769 10.1281L468.137 0.400085H490.025C490.921 1.80809 492.329 3.60009 493.737 3.47208C495.913 3.21609 495.145 1.16809 497.577 2.57609C498.857 3.21609 499.881 1.80809 500.649 0.400085H509.609L518.313 17.9361L512.681 21.6481H484.649V32.5281H506.153V42.1281L502.057 51.9841L484.649 54.8001V64.7841L503.977 61.0721L509.993 68.4961L503.721 69.6481ZM584.417 70.6721L587.873 74.8961L584.289 90.1281L563.169 86.1601L556.257 73.8721C556.641 73.2321 557.025 72.7201 557.025 72.7201L556.129 70.8001C556.129 70.8001 555.361 70.8001 555.361 69.5201C555.233 68.1121 555.617 67.6001 555.361 67.0881C554.977 66.7041 554.081 65.9361 554.081 65.9361L552.929 65.1681C552.929 65.1681 552.289 65.4241 552.033 64.1441C551.777 62.8641 552.929 62.0961 552.033 62.2241C551.521 62.2241 550.881 62.6081 550.369 62.9921L547.681 58.2561L547.297 69.6481L542.945 89.4881H528.993L520.417 81.0401L521.057 69.3921C521.313 69.2641 521.697 69.0081 522.209 68.7521C524.385 67.3441 525.153 70.9281 524.385 67.3441C523.617 63.6321 523.361 62.7361 523.361 62.7361C523.361 62.7361 523.361 61.2001 523.361 61.0721C523.361 60.9441 525.281 59.6641 524.769 58.0001C524.129 56.3361 523.617 55.9521 523.361 54.9281C523.105 54.1601 522.721 51.9841 522.209 50.8321L523.361 31.6321L528.097 29.9681C528.097 29.9681 525.793 27.7921 523.617 25.7441L524.641 8.20808L539.617 0.400085L575.457 2.83208L579.681 7.18409L570.081 13.2001L582.241 9.87209L587.617 15.3761L580.321 42.5121L569.953 53.0081L581.857 67.6001C577.505 66.3201 569.825 64.1441 569.825 64.1441L584.417 70.6721ZM559.713 39.6961L566.881 25.3601L558.561 19.6001L547.553 18.0641L547.041 36.2401L559.713 39.6961Z" fill="#FF6B91"/>
</g>
<defs>
<filter id="filter0_d_273_303" x="4.28369" y="27.126" width="217.104" height="170.158" filterUnits="userSpaceOnUse" color-interpolation-filters="sRGB">
<feFlood flood-opacity="0" result="BackgroundImageFix"/>
<feColorMatrix in="SourceAlpha" type="matrix" values="0 0 0 0 0 0 0 0 0 0 0 0 0 0 0 0 0 0 127 0" result="hardAlpha"/>
<feOffset dy="-3"/>
<feGaussianBlur stdDeviation="15"/>
<feComposite in2="hardAlpha" operator="out"/>
<feColorMatrix type="matrix" values="0 0 0 0 1 0 0 0 0 1 0 0 0 0 1 0 0 0 0.5 0"/>
<feBlend mode="normal" in2="BackgroundImageFix" result="effect1_dropShadow_273_303"/>
<feBlend mode="normal" in="SourceGraphic" in2="effect1_dropShadow_273_303" result="shape"/>
</filter>
<filter id="filter1_d_273_303" x="244" y="42.9885" width="170.9" height="141.639" filterUnits="userSpaceOnUse" color-interpolation-filters="sRGB">
<feFlood flood-opacity="0" result="BackgroundImageFix"/>
<feColorMatrix in="SourceAlpha" type="matrix" values="0 0 0 0 0 0 0 0 0 0 0 0 0 0 0 0 0 0 127 0" result="hardAlpha"/>
<feOffset dy="-3"/>
<feGaussianBlur stdDeviation="15"/>
<feComposite in2="hardAlpha" operator="out"/>
<feColorMatrix type="matrix" values="0 0 0 0 1 0 0 0 0 1 0 0 0 0 1 0 0 0 0.5 0"/>
<feBlend mode="normal" in2="BackgroundImageFix" result="effect1_dropShadow_273_303"/>
<feBlend mode="normal" in="SourceGraphic" in2="effect1_dropShadow_273_303" result="shape"/>
</filter>
<filter id="filter2_d_273_303" x="434" y="42" width="136.738" height="115.071" filterUnits="userSpaceOnUse" color-interpolation-filters="sRGB">
<feFlood flood-opacity="0" result="BackgroundImageFix"/>
<feColorMatrix in="SourceAlpha" type="matrix" values="0 0 0 0 0 0 0 0 0 0 0 0 0 0 0 0 0 0 127 0" result="hardAlpha"/>
<feOffset dy="-3"/>
<feGaussianBlur stdDeviation="15"/>
<feComposite in2="hardAlpha" operator="out"/>
<feColorMatrix type="matrix" values="0 0 0 0 1 0 0 0 0 1 0 0 0 0 1 0 0 0 0.5 0"/>
<feBlend mode="normal" in2="BackgroundImageFix" result="effect1_dropShadow_273_303"/>
<feBlend mode="normal" in="SourceGraphic" in2="effect1_dropShadow_273_303" result="shape"/>
</filter>
<filter id="filter3_di_273_303" x="53.917" y="0.400085" width="537.956" height="109.168" filterUnits="userSpaceOnUse" color-interpolation-filters="sRGB">
<feFlood flood-opacity="0" result="BackgroundImageFix"/>
<feColorMatrix in="SourceAlpha" type="matrix" values="0 0 0 0 0 0 0 0 0 0 0 0 0 0 0 0 0 0 127 0" result="hardAlpha"/>
<feOffset dx="2" dy="4"/>
<feGaussianBlur stdDeviation="1"/>
<feComposite in2="hardAlpha" operator="out"/>
<feColorMatrix type="matrix" values="0 0 0 0 0.760784 0 0 0 0 0.262745 0 0 0 0 0.423529 0 0 0 1 0"/>
<feBlend mode="normal" in2="BackgroundImageFix" result="effect1_dropShadow_273_303"/>
<feBlend mode="normal" in="SourceGraphic" in2="effect1_dropShadow_273_303" result="shape"/>
<feColorMatrix in="SourceAlpha" type="matrix" values="0 0 0 0 0 0 0 0 0 0 0 0 0 0 0 0 0 0 127 0" result="hardAlpha"/>
<feOffset dx="2" dy="4"/>
<feGaussianBlur stdDeviation="0.75"/>
<feComposite in2="hardAlpha" operator="arithmetic" k2="-1" k3="1"/>
<feColorMatrix type="matrix" values="0 0 0 0 1 0 0 0 0 0.898039 0 0 0 0 0.901961 0 0 0 0.75 0"/>
<feBlend mode="normal" in2="shape" result="effect2_innerShadow_273_303"/>
</filter>
</defs>
</svg>
