<svg width="377" height="126" viewBox="0 0 377 126" fill="none" xmlns="http://www.w3.org/2000/svg">
<path d="M28.6174 87.6221V23.7663H48.2857C53.3424 23.7663 57.6935 24.4425 61.3391 25.7949C65.0434 27.0884 67.8952 29.0876 69.8944 31.7924C71.9523 34.4971 72.9813 37.9663 72.9813 42.1998C72.9813 45.1398 72.4227 47.8151 71.3055 50.2259C70.1883 52.5778 68.5714 54.6064 66.4546 56.3116C64.3966 58.0167 61.8977 59.3691 58.9577 60.3687C60.5453 61.1331 61.8977 62.3679 63.0149 64.0731L78.7142 87.6221H67.7776C65.6608 87.6221 64.1614 86.8283 63.2795 85.2407L50.1379 64.8668C49.6087 64.1024 49.0501 63.5733 48.4621 63.2793C47.8741 62.9265 46.9921 62.7501 45.8161 62.7501H40.877V87.6221H28.6174ZM40.877 54.1948H48.1093C52.3428 54.1948 55.5474 53.1952 57.7229 51.1961C59.9573 49.1969 61.0745 46.4921 61.0745 43.0818C61.0745 39.8478 60.0161 37.3783 57.8993 35.6731C55.8414 33.9679 52.6368 33.1154 48.2857 33.1154H40.877V54.1948ZM70.6881 87.6221L66.1018 77.5674L72.0993 78.8022L70.6881 87.6221ZM22.0907 87.6221V82.5066C22.0907 81.6834 22.2965 81.066 22.7081 80.6544C23.1785 80.2428 23.8253 79.9488 24.6485 79.7724L29.6758 78.714L30.8224 87.6221H22.0907ZM30.8224 23.7663L29.6758 32.6744L24.6485 31.616C23.8253 31.4396 23.1785 31.1456 22.7081 30.734C22.2965 30.3224 22.0907 29.705 22.0907 28.8818V23.7663H30.8224ZM38.7603 87.6221L39.8186 78.714L44.9342 79.7724C45.6985 79.9488 46.3159 80.2428 46.7863 80.6544C47.2567 81.066 47.4919 81.6834 47.4919 82.5066V87.6221H38.7603ZM70.6881 87.6221L71.8347 78.714L76.862 79.7724C77.6852 79.9488 78.3026 80.2428 78.7142 80.6544C79.1846 81.066 79.4198 81.6834 79.4198 82.5066V87.6221H70.6881ZM103.147 88.3277C98.6191 88.3277 94.6795 87.3281 91.328 85.3289C87.9764 83.2709 85.3599 80.4192 83.4783 76.7736C81.6555 73.0693 80.7442 68.8064 80.7442 63.9849C80.7442 59.7513 81.6555 55.9588 83.4783 52.6072C85.3011 49.1969 87.8588 46.5215 91.1516 44.5812C94.4443 42.582 98.2663 41.5824 102.617 41.5824C106.557 41.5824 109.997 42.435 112.937 44.1402C115.935 45.7865 118.229 48.1385 119.816 51.1961C121.462 54.2536 122.286 57.8992 122.286 62.1327C122.286 63.7203 122.139 64.8374 121.845 65.4842C121.551 66.0722 120.845 66.3662 119.728 66.3662H91.9454C91.9454 66.5426 91.9454 66.719 91.9454 66.8954C91.9454 67.0718 91.9748 67.2482 92.0336 67.4246C92.504 71.5405 93.7681 74.6275 95.8261 76.6854C97.9429 78.7434 100.706 79.7724 104.117 79.7724C105.704 79.7724 107.292 79.449 108.879 78.8022C110.526 78.1554 112.025 77.5086 113.378 76.8618C114.73 76.1563 115.818 75.8035 116.641 75.8035C117.464 75.8035 118.14 76.1269 118.67 76.7736L121.933 80.8308C120.345 82.6536 118.493 84.1235 116.376 85.2407C114.318 86.3579 112.143 87.1517 109.85 87.6221C107.615 88.0925 105.381 88.3277 103.147 88.3277ZM92.1218 59.7513H112.319C112.319 56.8114 111.525 54.3712 109.938 52.4308C108.35 50.4905 105.998 49.5203 102.882 49.5203C99.7656 49.5203 97.2961 50.4023 95.4733 52.1662C93.7093 53.9302 92.5922 56.4586 92.1218 59.7513ZM145.434 41.5824C147.375 41.5824 149.197 41.7882 150.903 42.1998C152.608 42.5526 154.195 43.1112 155.665 43.8756H168.719V48.0209C168.719 48.6089 168.513 49.1087 168.101 49.5203C167.749 49.9319 167.131 50.2259 166.249 50.4023L162.192 51.1079C162.898 52.6366 163.25 54.3418 163.25 56.2234C163.25 59.2221 162.457 61.8093 160.869 63.9849C159.282 66.1604 157.135 67.8656 154.431 69.1004C151.785 70.2764 148.786 70.8643 145.434 70.8643C144.611 70.8643 143.788 70.8349 142.965 70.7761C142.142 70.6585 141.348 70.5409 140.583 70.4233C139.937 70.8349 139.407 71.2759 138.996 71.7463C138.643 72.2167 138.467 72.7165 138.467 73.2457C138.467 74.1277 138.908 74.8039 139.79 75.2743C140.73 75.6859 141.936 75.9799 143.406 76.1563C144.935 76.2739 146.522 76.3621 148.169 76.4209C149.874 76.4797 151.491 76.5678 153.019 76.6854C155.665 76.9206 158.076 77.3616 160.252 78.0084C162.486 78.6552 164.25 79.743 165.544 81.2718C166.837 82.8005 167.484 84.9761 167.484 87.7985C167.484 90.7384 166.543 93.3844 164.662 95.7363C162.78 98.1471 160.193 100.058 156.9 101.469C153.607 102.88 149.815 103.586 145.523 103.586C141.524 103.586 137.996 103.086 134.939 102.087C131.881 101.087 129.5 99.6759 127.795 97.8531C126.089 96.0891 125.237 94.0312 125.237 91.6792C125.237 89.5036 125.884 87.6809 127.177 86.2109C128.53 84.7409 130.352 83.5943 132.646 82.7711C131.47 82.1244 130.529 81.3012 129.823 80.3016C129.176 79.2432 128.853 77.9202 128.853 76.3327C128.853 74.8627 129.382 73.4221 130.441 72.0109C131.499 70.5409 132.969 69.3356 134.851 68.3948C132.499 67.16 130.676 65.5136 129.382 63.4557C128.089 61.3977 127.442 58.9869 127.442 56.2234C127.442 53.1658 128.236 50.5493 129.823 48.3737C131.411 46.1981 133.557 44.5224 136.262 43.3464C139.025 42.1704 142.083 41.5824 145.434 41.5824ZM157.253 89.6506C157.253 88.2983 156.636 87.3281 155.401 86.7401C154.225 86.0933 152.843 85.6817 151.255 85.5053C150.667 85.3877 149.844 85.2995 148.786 85.2407C147.786 85.1819 146.64 85.1231 145.346 85.0643C144.111 85.0055 142.935 84.9467 141.818 84.8879C140.701 84.7703 139.79 84.6821 139.084 84.6233C137.908 85.2701 136.908 86.0639 136.085 87.0047C135.321 87.8867 134.939 88.945 134.939 90.1798C134.939 91.3558 135.38 92.3554 136.262 93.1786C137.144 94.0606 138.378 94.7074 139.966 95.1189C141.612 95.5305 143.553 95.7363 145.787 95.7363C148.139 95.7363 150.168 95.5011 151.873 95.0308C153.578 94.5604 154.901 93.8842 155.842 93.0022C156.783 92.1202 157.253 91.003 157.253 89.6506ZM145.434 63.8085C148.08 63.8085 150.05 63.1323 151.344 61.7799C152.637 60.4275 153.284 58.6635 153.284 56.488C153.284 54.2536 152.637 52.4896 151.344 51.1961C150.109 49.9025 148.139 49.2557 145.434 49.2557C142.788 49.2557 140.819 49.9025 139.525 51.1961C138.231 52.4896 137.585 54.2536 137.585 56.488C137.585 58.6635 138.261 60.4275 139.613 61.7799C141.024 63.1323 142.965 63.8085 145.434 63.8085ZM178.921 87.6221V42.288H190.034V87.6221H178.921ZM172.306 87.6221V82.5066C172.306 81.6834 172.512 81.066 172.923 80.6544C173.394 80.2428 174.041 79.9488 174.864 79.7724L179.891 78.714L181.038 87.6221H172.306ZM187.917 87.6221L189.064 78.714L194.091 79.7724C194.914 79.9488 195.532 80.2428 195.943 80.6544C196.414 81.066 196.649 81.6834 196.649 82.5066V87.6221H187.917ZM181.038 42.288L179.891 51.1961L174.864 50.1377C174.041 49.9613 173.394 49.6673 172.923 49.2557C172.512 48.8441 172.306 48.2267 172.306 47.4035V42.288H181.038ZM184.654 36.0259C182.772 36.0259 181.126 35.3497 179.715 33.9973C178.303 32.645 177.598 31.028 177.598 29.1464C177.598 27.206 178.303 25.5597 179.715 24.2073C181.126 22.7961 182.772 22.0905 184.654 22.0905C186.594 22.0905 188.27 22.7961 189.681 24.2073C191.092 25.5597 191.798 27.206 191.798 29.1464C191.798 31.028 191.092 32.645 189.681 33.9973C188.27 35.3497 186.594 36.0259 184.654 36.0259ZM215.904 88.3277C213.316 88.3277 210.729 88.0925 208.142 87.6221C205.555 87.1517 203.291 86.5931 201.351 85.9463V78.4494L206.643 78.273C207.348 78.861 208.613 79.4196 210.435 79.9488C212.258 80.4192 214.169 80.6544 216.168 80.6544C218.638 80.6544 220.49 80.1546 221.725 79.155C222.96 78.1554 223.577 76.8618 223.577 75.2743C223.577 73.8043 223.018 72.6871 221.901 71.9227C220.843 71.0995 219.461 70.4233 217.756 69.8942C216.109 69.365 214.404 68.8064 212.64 68.2184C210.582 67.5128 208.701 66.6602 206.996 65.6606C205.29 64.661 203.938 63.3381 202.938 61.6917C201.939 60.0453 201.439 58.0167 201.439 55.606C201.439 52.8424 202.145 50.4023 203.556 48.2855C205.026 46.1687 207.025 44.5224 209.553 43.3464C212.14 42.1704 215.139 41.5824 218.55 41.5824C221.078 41.5824 223.401 41.9352 225.517 42.6408C227.693 43.2876 229.839 44.0814 231.956 45.0222V50.5787L226.399 51.2843C225.341 50.9315 224.194 50.5787 222.96 50.2259C221.725 49.8143 220.372 49.6085 218.902 49.6085C217.55 49.6085 216.345 49.8143 215.286 50.2259C214.228 50.6375 213.405 51.1961 212.817 51.9016C212.287 52.6072 212.023 53.4598 212.023 54.4594C212.023 55.8118 212.611 56.8996 213.787 57.7228C214.963 58.4871 216.433 59.1633 218.197 59.7513C219.961 60.2805 221.607 60.8097 223.136 61.3389C225.076 61.9857 226.87 62.8089 228.516 63.8085C230.221 64.7492 231.574 65.984 232.573 67.5128C233.573 69.0416 234.073 71.0113 234.073 73.4221C234.073 76.3621 233.338 78.9492 231.868 81.1836C230.398 83.4179 228.31 85.1819 225.605 86.4755C222.901 87.7103 219.667 88.3277 215.904 88.3277ZM224.106 48.1973L231.956 50.1377V57.0172H227.899C227.075 57.0172 226.458 56.782 226.046 56.3116C225.635 55.8412 225.341 55.2238 225.164 54.4594L224.106 48.1973ZM209.201 81.8892L201.351 79.9488V73.0693H205.408C206.29 73.0693 206.907 73.3045 207.26 73.7749C207.672 74.2453 207.966 74.8627 208.142 75.6271L209.201 81.8892ZM256.611 88.3277C252.672 88.3277 249.614 87.2105 247.439 84.9761C245.322 82.7417 244.264 79.6548 244.264 75.7153V50.4905H239.677C239.089 50.4905 238.589 50.3141 238.178 49.9613C237.766 49.6085 237.561 49.0499 237.561 48.2855V43.8756L244.881 42.6408L247.174 30.3812C247.409 29.1464 248.233 28.529 249.644 28.529H255.377V42.729H267.283V50.4905H255.377V75.0097C255.377 76.4209 255.729 77.538 256.435 78.3612C257.141 79.1256 258.081 79.5078 259.257 79.5078C259.904 79.5078 260.492 79.3902 261.021 79.155C261.551 78.861 262.05 78.5964 262.521 78.3612C262.991 78.126 263.403 78.0084 263.755 78.0084C264.285 78.0084 264.755 78.3318 265.167 78.9786L268.518 84.3587C266.931 85.5935 265.108 86.5637 263.05 87.2693C260.992 87.9749 258.846 88.3277 256.611 88.3277ZM294.875 88.3277C290.348 88.3277 286.408 87.3281 283.057 85.3289C279.705 83.2709 277.088 80.4192 275.207 76.7736C273.384 73.0693 272.473 68.8064 272.473 63.9849C272.473 59.7513 273.384 55.9588 275.207 52.6072C277.03 49.1969 279.587 46.5215 282.88 44.5812C286.173 42.582 289.995 41.5824 294.346 41.5824C298.285 41.5824 301.725 42.435 304.665 44.1402C307.664 45.7865 309.957 48.1385 311.545 51.1961C313.191 54.2536 314.014 57.8992 314.014 62.1327C314.014 63.7203 313.867 64.8374 313.573 65.4842C313.279 66.0722 312.574 66.3662 311.456 66.3662H283.674C283.674 66.5426 283.674 66.719 283.674 66.8954C283.674 67.0718 283.703 67.2482 283.762 67.4246C284.232 71.5405 285.497 74.6275 287.555 76.6854C289.671 78.7434 292.435 79.7724 295.845 79.7724C297.433 79.7724 299.02 79.449 300.608 78.8022C302.254 78.1554 303.754 77.5086 305.106 76.8618C306.459 76.1563 307.546 75.8035 308.369 75.8035C309.193 75.8035 309.869 76.1269 310.398 76.7736L313.661 80.8308C312.074 82.6536 310.222 84.1235 308.105 85.2407C306.047 86.3579 303.871 87.1517 301.578 87.6221C299.344 88.0925 297.109 88.3277 294.875 88.3277ZM283.85 59.7513H304.048C304.048 56.8114 303.254 54.3712 301.666 52.4308C300.079 50.4905 297.727 49.5203 294.611 49.5203C291.494 49.5203 289.025 50.4023 287.202 52.1662C285.438 53.9302 284.321 56.4586 283.85 59.7513ZM325.344 87.6221V42.288H331.871C333.047 42.288 333.841 42.5232 334.252 42.9936C334.723 43.4052 335.046 44.1108 335.223 45.1104L335.84 50.4905C337.486 47.6681 339.368 45.4632 341.485 43.8756C343.66 42.288 346.1 41.4942 348.805 41.4942C349.922 41.4942 350.922 41.6412 351.804 41.9352C352.745 42.1704 353.568 42.5232 354.273 42.9936L352.862 51.2843C352.803 51.8134 352.598 52.1956 352.245 52.4308C351.951 52.6072 351.569 52.6954 351.098 52.6954C350.804 52.6954 350.128 52.6072 349.07 52.4308C348.011 52.2544 347.071 52.1662 346.247 52.1662C344.013 52.1662 342.102 52.7836 340.514 54.0184C338.927 55.2532 337.574 57.0466 336.457 59.3985V87.6221H325.344ZM334.341 87.6221L335.487 78.714L340.514 79.7724C341.338 79.9488 341.955 80.2428 342.367 80.6544C342.837 81.066 343.072 81.6834 343.072 82.5066V87.6221H334.341ZM318.729 87.6221V82.5066C318.729 81.6834 318.935 81.066 319.347 80.6544C319.817 80.2428 320.464 79.9488 321.287 79.7724L326.314 78.714L327.461 87.6221H318.729ZM327.461 42.288L326.314 51.1961L321.287 50.1377C320.464 49.9613 319.817 49.6673 319.347 49.2557C318.935 48.8441 318.729 48.2267 318.729 47.4035V42.288H327.461Z" fill="#FFF7EB"/>
<g filter="url(#filter0_f_1643_1755)">
<path d="M28.6174 87.6221V23.7663H48.2857C53.3424 23.7663 57.6935 24.4425 61.3391 25.7949C65.0434 27.0884 67.8952 29.0876 69.8944 31.7924C71.9523 34.4971 72.9813 37.9663 72.9813 42.1998C72.9813 45.1398 72.4227 47.8151 71.3055 50.2259C70.1883 52.5778 68.5714 54.6064 66.4546 56.3116C64.3966 58.0167 61.8977 59.3691 58.9577 60.3687C60.5453 61.1331 61.8977 62.3679 63.0149 64.0731L78.7142 87.6221H67.7776C65.6608 87.6221 64.1614 86.8283 63.2795 85.2407L50.1379 64.8668C49.6087 64.1024 49.0501 63.5733 48.4621 63.2793C47.8741 62.9265 46.9921 62.7501 45.8161 62.7501H40.877V87.6221H28.6174ZM40.877 54.1948H48.1093C52.3428 54.1948 55.5474 53.1952 57.7229 51.1961C59.9573 49.1969 61.0745 46.4921 61.0745 43.0818C61.0745 39.8478 60.0161 37.3783 57.8993 35.6731C55.8414 33.9679 52.6368 33.1154 48.2857 33.1154H40.877V54.1948ZM70.6881 87.6221L66.1018 77.5674L72.0993 78.8022L70.6881 87.6221ZM22.0907 87.6221V82.5066C22.0907 81.6834 22.2965 81.066 22.7081 80.6544C23.1785 80.2428 23.8253 79.9488 24.6485 79.7724L29.6758 78.714L30.8224 87.6221H22.0907ZM30.8224 23.7663L29.6758 32.6744L24.6485 31.616C23.8253 31.4396 23.1785 31.1456 22.7081 30.734C22.2965 30.3224 22.0907 29.705 22.0907 28.8818V23.7663H30.8224ZM38.7603 87.6221L39.8186 78.714L44.9342 79.7724C45.6985 79.9488 46.3159 80.2428 46.7863 80.6544C47.2567 81.066 47.4919 81.6834 47.4919 82.5066V87.6221H38.7603ZM70.6881 87.6221L71.8347 78.714L76.862 79.7724C77.6852 79.9488 78.3026 80.2428 78.7142 80.6544C79.1846 81.066 79.4198 81.6834 79.4198 82.5066V87.6221H70.6881ZM103.147 88.3277C98.6191 88.3277 94.6795 87.3281 91.328 85.3289C87.9764 83.2709 85.3599 80.4192 83.4783 76.7736C81.6555 73.0693 80.7442 68.8064 80.7442 63.9849C80.7442 59.7513 81.6555 55.9588 83.4783 52.6072C85.3011 49.1969 87.8588 46.5215 91.1516 44.5812C94.4443 42.582 98.2663 41.5824 102.617 41.5824C106.557 41.5824 109.997 42.435 112.937 44.1402C115.935 45.7865 118.229 48.1385 119.816 51.1961C121.462 54.2536 122.286 57.8992 122.286 62.1327C122.286 63.7203 122.139 64.8374 121.845 65.4842C121.551 66.0722 120.845 66.3662 119.728 66.3662H91.9454C91.9454 66.5426 91.9454 66.719 91.9454 66.8954C91.9454 67.0718 91.9748 67.2482 92.0336 67.4246C92.504 71.5405 93.7681 74.6275 95.8261 76.6854C97.9429 78.7434 100.706 79.7724 104.117 79.7724C105.704 79.7724 107.292 79.449 108.879 78.8022C110.526 78.1554 112.025 77.5086 113.378 76.8618C114.73 76.1563 115.818 75.8035 116.641 75.8035C117.464 75.8035 118.14 76.1269 118.67 76.7736L121.933 80.8308C120.345 82.6536 118.493 84.1235 116.376 85.2407C114.318 86.3579 112.143 87.1517 109.85 87.6221C107.615 88.0925 105.381 88.3277 103.147 88.3277ZM92.1218 59.7513H112.319C112.319 56.8114 111.525 54.3712 109.938 52.4308C108.35 50.4905 105.998 49.5203 102.882 49.5203C99.7656 49.5203 97.2961 50.4023 95.4733 52.1662C93.7093 53.9302 92.5922 56.4586 92.1218 59.7513ZM145.434 41.5824C147.375 41.5824 149.197 41.7882 150.903 42.1998C152.608 42.5526 154.195 43.1112 155.665 43.8756H168.719V48.0209C168.719 48.6089 168.513 49.1087 168.101 49.5203C167.749 49.9319 167.131 50.2259 166.249 50.4023L162.192 51.1079C162.898 52.6366 163.25 54.3418 163.25 56.2234C163.25 59.2221 162.457 61.8093 160.869 63.9849C159.282 66.1604 157.135 67.8656 154.431 69.1004C151.785 70.2764 148.786 70.8643 145.434 70.8643C144.611 70.8643 143.788 70.8349 142.965 70.7761C142.142 70.6585 141.348 70.5409 140.583 70.4233C139.937 70.8349 139.407 71.2759 138.996 71.7463C138.643 72.2167 138.467 72.7165 138.467 73.2457C138.467 74.1277 138.908 74.8039 139.79 75.2743C140.73 75.6859 141.936 75.9799 143.406 76.1563C144.935 76.2739 146.522 76.3621 148.169 76.4209C149.874 76.4797 151.491 76.5678 153.019 76.6854C155.665 76.9206 158.076 77.3616 160.252 78.0084C162.486 78.6552 164.25 79.743 165.544 81.2718C166.837 82.8005 167.484 84.9761 167.484 87.7985C167.484 90.7384 166.543 93.3844 164.662 95.7363C162.78 98.1471 160.193 100.058 156.9 101.469C153.607 102.88 149.815 103.586 145.523 103.586C141.524 103.586 137.996 103.086 134.939 102.087C131.881 101.087 129.5 99.6759 127.795 97.8531C126.089 96.0891 125.237 94.0312 125.237 91.6792C125.237 89.5036 125.884 87.6809 127.177 86.2109C128.53 84.7409 130.352 83.5943 132.646 82.7711C131.47 82.1244 130.529 81.3012 129.823 80.3016C129.176 79.2432 128.853 77.9202 128.853 76.3327C128.853 74.8627 129.382 73.4221 130.441 72.0109C131.499 70.5409 132.969 69.3356 134.851 68.3948C132.499 67.16 130.676 65.5136 129.382 63.4557C128.089 61.3977 127.442 58.9869 127.442 56.2234C127.442 53.1658 128.236 50.5493 129.823 48.3737C131.411 46.1981 133.557 44.5224 136.262 43.3464C139.025 42.1704 142.083 41.5824 145.434 41.5824ZM157.253 89.6506C157.253 88.2983 156.636 87.3281 155.401 86.7401C154.225 86.0933 152.843 85.6817 151.255 85.5053C150.667 85.3877 149.844 85.2995 148.786 85.2407C147.786 85.1819 146.64 85.1231 145.346 85.0643C144.111 85.0055 142.935 84.9467 141.818 84.8879C140.701 84.7703 139.79 84.6821 139.084 84.6233C137.908 85.2701 136.908 86.0639 136.085 87.0047C135.321 87.8867 134.939 88.945 134.939 90.1798C134.939 91.3558 135.38 92.3554 136.262 93.1786C137.144 94.0606 138.378 94.7074 139.966 95.1189C141.612 95.5305 143.553 95.7363 145.787 95.7363C148.139 95.7363 150.168 95.5011 151.873 95.0308C153.578 94.5604 154.901 93.8842 155.842 93.0022C156.783 92.1202 157.253 91.003 157.253 89.6506ZM145.434 63.8085C148.08 63.8085 150.05 63.1323 151.344 61.7799C152.637 60.4275 153.284 58.6635 153.284 56.488C153.284 54.2536 152.637 52.4896 151.344 51.1961C150.109 49.9025 148.139 49.2557 145.434 49.2557C142.788 49.2557 140.819 49.9025 139.525 51.1961C138.231 52.4896 137.585 54.2536 137.585 56.488C137.585 58.6635 138.261 60.4275 139.613 61.7799C141.024 63.1323 142.965 63.8085 145.434 63.8085ZM178.921 87.6221V42.288H190.034V87.6221H178.921ZM172.306 87.6221V82.5066C172.306 81.6834 172.512 81.066 172.923 80.6544C173.394 80.2428 174.041 79.9488 174.864 79.7724L179.891 78.714L181.038 87.6221H172.306ZM187.917 87.6221L189.064 78.714L194.091 79.7724C194.914 79.9488 195.532 80.2428 195.943 80.6544C196.414 81.066 196.649 81.6834 196.649 82.5066V87.6221H187.917ZM181.038 42.288L179.891 51.1961L174.864 50.1377C174.041 49.9613 173.394 49.6673 172.923 49.2557C172.512 48.8441 172.306 48.2267 172.306 47.4035V42.288H181.038ZM184.654 36.0259C182.772 36.0259 181.126 35.3497 179.715 33.9973C178.303 32.645 177.598 31.028 177.598 29.1464C177.598 27.206 178.303 25.5597 179.715 24.2073C181.126 22.7961 182.772 22.0905 184.654 22.0905C186.594 22.0905 188.27 22.7961 189.681 24.2073C191.092 25.5597 191.798 27.206 191.798 29.1464C191.798 31.028 191.092 32.645 189.681 33.9973C188.27 35.3497 186.594 36.0259 184.654 36.0259ZM215.904 88.3277C213.316 88.3277 210.729 88.0925 208.142 87.6221C205.555 87.1517 203.291 86.5931 201.351 85.9463V78.4494L206.643 78.273C207.348 78.861 208.613 79.4196 210.435 79.9488C212.258 80.4192 214.169 80.6544 216.168 80.6544C218.638 80.6544 220.49 80.1546 221.725 79.155C222.96 78.1554 223.577 76.8618 223.577 75.2743C223.577 73.8043 223.018 72.6871 221.901 71.9227C220.843 71.0995 219.461 70.4233 217.756 69.8942C216.109 69.365 214.404 68.8064 212.64 68.2184C210.582 67.5128 208.701 66.6602 206.996 65.6606C205.29 64.661 203.938 63.3381 202.938 61.6917C201.939 60.0453 201.439 58.0167 201.439 55.606C201.439 52.8424 202.145 50.4023 203.556 48.2855C205.026 46.1687 207.025 44.5224 209.553 43.3464C212.14 42.1704 215.139 41.5824 218.55 41.5824C221.078 41.5824 223.401 41.9352 225.517 42.6408C227.693 43.2876 229.839 44.0814 231.956 45.0222V50.5787L226.399 51.2843C225.341 50.9315 224.194 50.5787 222.96 50.2259C221.725 49.8143 220.372 49.6085 218.902 49.6085C217.55 49.6085 216.345 49.8143 215.286 50.2259C214.228 50.6375 213.405 51.1961 212.817 51.9016C212.287 52.6072 212.023 53.4598 212.023 54.4594C212.023 55.8118 212.611 56.8996 213.787 57.7228C214.963 58.4871 216.433 59.1633 218.197 59.7513C219.961 60.2805 221.607 60.8097 223.136 61.3389C225.076 61.9857 226.87 62.8089 228.516 63.8085C230.221 64.7492 231.574 65.984 232.573 67.5128C233.573 69.0416 234.073 71.0113 234.073 73.4221C234.073 76.3621 233.338 78.9492 231.868 81.1836C230.398 83.4179 228.31 85.1819 225.605 86.4755C222.901 87.7103 219.667 88.3277 215.904 88.3277ZM224.106 48.1973L231.956 50.1377V57.0172H227.899C227.075 57.0172 226.458 56.782 226.046 56.3116C225.635 55.8412 225.341 55.2238 225.164 54.4594L224.106 48.1973ZM209.201 81.8892L201.351 79.9488V73.0693H205.408C206.29 73.0693 206.907 73.3045 207.26 73.7749C207.672 74.2453 207.966 74.8627 208.142 75.6271L209.201 81.8892ZM256.611 88.3277C252.672 88.3277 249.614 87.2105 247.439 84.9761C245.322 82.7417 244.264 79.6548 244.264 75.7153V50.4905H239.677C239.089 50.4905 238.589 50.3141 238.178 49.9613C237.766 49.6085 237.561 49.0499 237.561 48.2855V43.8756L244.881 42.6408L247.174 30.3812C247.409 29.1464 248.233 28.529 249.644 28.529H255.377V42.729H267.283V50.4905H255.377V75.0097C255.377 76.4209 255.729 77.538 256.435 78.3612C257.141 79.1256 258.081 79.5078 259.257 79.5078C259.904 79.5078 260.492 79.3902 261.021 79.155C261.551 78.861 262.05 78.5964 262.521 78.3612C262.991 78.126 263.403 78.0084 263.755 78.0084C264.285 78.0084 264.755 78.3318 265.167 78.9786L268.518 84.3587C266.931 85.5935 265.108 86.5637 263.05 87.2693C260.992 87.9749 258.846 88.3277 256.611 88.3277ZM294.875 88.3277C290.348 88.3277 286.408 87.3281 283.057 85.3289C279.705 83.2709 277.088 80.4192 275.207 76.7736C273.384 73.0693 272.473 68.8064 272.473 63.9849C272.473 59.7513 273.384 55.9588 275.207 52.6072C277.03 49.1969 279.587 46.5215 282.88 44.5812C286.173 42.582 289.995 41.5824 294.346 41.5824C298.285 41.5824 301.725 42.435 304.665 44.1402C307.664 45.7865 309.957 48.1385 311.545 51.1961C313.191 54.2536 314.014 57.8992 314.014 62.1327C314.014 63.7203 313.867 64.8374 313.573 65.4842C313.279 66.0722 312.574 66.3662 311.456 66.3662H283.674C283.674 66.5426 283.674 66.719 283.674 66.8954C283.674 67.0718 283.703 67.2482 283.762 67.4246C284.232 71.5405 285.497 74.6275 287.555 76.6854C289.671 78.7434 292.435 79.7724 295.845 79.7724C297.433 79.7724 299.02 79.449 300.608 78.8022C302.254 78.1554 303.754 77.5086 305.106 76.8618C306.459 76.1563 307.546 75.8035 308.369 75.8035C309.193 75.8035 309.869 76.1269 310.398 76.7736L313.661 80.8308C312.074 82.6536 310.222 84.1235 308.105 85.2407C306.047 86.3579 303.871 87.1517 301.578 87.6221C299.344 88.0925 297.109 88.3277 294.875 88.3277ZM283.85 59.7513H304.048C304.048 56.8114 303.254 54.3712 301.666 52.4308C300.079 50.4905 297.727 49.5203 294.611 49.5203C291.494 49.5203 289.025 50.4023 287.202 52.1662C285.438 53.9302 284.321 56.4586 283.85 59.7513ZM325.344 87.6221V42.288H331.871C333.047 42.288 333.841 42.5232 334.252 42.9936C334.723 43.4052 335.046 44.1108 335.223 45.1104L335.84 50.4905C337.486 47.6681 339.368 45.4632 341.485 43.8756C343.66 42.288 346.1 41.4942 348.805 41.4942C349.922 41.4942 350.922 41.6412 351.804 41.9352C352.745 42.1704 353.568 42.5232 354.273 42.9936L352.862 51.2843C352.803 51.8134 352.598 52.1956 352.245 52.4308C351.951 52.6072 351.569 52.6954 351.098 52.6954C350.804 52.6954 350.128 52.6072 349.07 52.4308C348.011 52.2544 347.071 52.1662 346.247 52.1662C344.013 52.1662 342.102 52.7836 340.514 54.0184C338.927 55.2532 337.574 57.0466 336.457 59.3985V87.6221H325.344ZM334.341 87.6221L335.487 78.714L340.514 79.7724C341.338 79.9488 341.955 80.2428 342.367 80.6544C342.837 81.066 343.072 81.6834 343.072 82.5066V87.6221H334.341ZM318.729 87.6221V82.5066C318.729 81.6834 318.935 81.066 319.347 80.6544C319.817 80.2428 320.464 79.9488 321.287 79.7724L326.314 78.714L327.461 87.6221H318.729ZM327.461 42.288L326.314 51.1961L321.287 50.1377C320.464 49.9613 319.817 49.6673 319.347 49.2557C318.935 48.8441 318.729 48.2267 318.729 47.4035V42.288H327.461Z" fill="#FFF7EB"/>
</g>
<defs>
<filter id="filter0_f_1643_1755" x="-5.72205e-06" y="-0.000371933" width="376.364" height="125.677" filterUnits="userSpaceOnUse" color-interpolation-filters="sRGB">
<feFlood flood-opacity="0" result="BackgroundImageFix"/>
<feBlend mode="normal" in="SourceGraphic" in2="BackgroundImageFix" result="shape"/>
<feGaussianBlur stdDeviation="11.0454" result="effect1_foregroundBlur_1643_1755"/>
</filter>
</defs>
</svg>
