<svg width="558" height="185" viewBox="0 0 558 185" fill="none" xmlns="http://www.w3.org/2000/svg">
<path d="M2.1975 102.591L22.216 62.3723L81.752 83.3061L90.0641 82.0064L156.509 94.686L124.992 111.242L120.953 104.559L126.722 92.873L117.203 89.86L95.2571 116.079L75.9192 123.838L75.1849 119.921L33.8749 165.437L16.5035 169.888L14.5231 149.239L36.4812 87.5243L10.9558 113.225L0.283692 112.549L2.1975 102.591Z" fill="#FF6B91"/>
<path d="M7.59919 103.81L2.1975 102.591L22.4914 60.126L89.5922 81.6118L135.847 90.6027L157.388 94.5961L126.893 107.054L123.654 105.169L128.347 90.9313L116.325 89.951L83.1035 113.338L84.4529 83.9158L81.2801 82.9115L75.9192 123.838L68.6684 103.732L31.4752 151.043L59.5952 82.9262L59.4769 75.3957L45.9073 71.4689L30.9485 84.5451L11.8472 107.365L31.9313 68.0276L7.59919 103.81Z" fill="#C43865"/>
<path d="M34.2257 69.1218L29.5057 65.1711L31.1314 63.2289L84.7938 82.5491L84.9905 85.1909L83.1035 113.338L78.1213 105.864L80.9393 84.2771L76.0097 83.4537L69.1007 91.7078L59.1888 83.4111L59.4769 75.3957L53.1969 74.2671L20.7376 149.487L14.9296 148.754L36.4812 87.5243L41.2142 85.7058L51.7809 73.0819L49.0801 72.4727L31.7614 83.5735L34.2257 69.1218Z" fill="#EC3C6A"/>
<path d="M8.00556 103.324L26.3726 76.586L9.89354 104.904L11.9783 109.126L31.0796 86.306L36.4812 87.5243L10.9558 113.225L0.283692 112.549L8.00556 103.324Z" fill="#FFCAE9"/>
<path d="M68.6684 103.732L73.6378 116.974L34.6351 157.817L28.4991 152.681L16.9755 170.284L20.7376 149.487L42.2635 99.7959L24.2512 149.125L29.7184 151.224L68.6684 103.732Z" fill="#FFCAE9"/>
<path d="M78.1213 105.864L75.9192 123.838L83.1035 113.338L78.1213 105.864Z" fill="#FFCAE9"/>
<path d="M110.701 97.6287L91.8876 112.433L95.2571 116.079L110.701 97.6287Z" fill="#FFCAE9"/>
<path d="M124.992 111.242L123.182 104.773L126.893 107.054L153.127 96.8092L124.992 111.242Z" fill="#FFCAE9"/>
<g filter="url(#filter0_d_273_303)">
<path d="M329.495 135.96L336.964 79.6857L325.264 79.7109L310.807 93.4764L318.099 137.833L329.495 135.96Z" fill="#FF6B91"/>
<path d="M270.043 109.761L260.23 111.281L261.468 88.3002L323.332 78.1304L270.043 109.761Z" fill="#FF6B91"/>
<path d="M338.546 140.165L350.9 83.0885L336.356 75.9885L323.332 78.1295L269.998 109.675L265.114 110.478L284.237 114.927L310.807 93.4755L325.264 79.7101L336.964 79.6849L329.495 135.959L338.546 140.165Z" fill="#C43865"/>
<path d="M338.546 140.166L324.697 157.628L318.099 137.833L329.495 135.96L338.546 140.166Z" fill="#FFCAE9"/>
<path d="M264.288 125.799L284.237 114.927L265.114 110.478L260.23 111.281L264.288 125.799Z" fill="#FFCAE9"/>
<path d="M259.123 94.38L261.468 88.3001L240 89.9311L246.403 98.3692L259.123 94.38Z" fill="#FFCAE9"/>
<path d="M312.802 146.295L324.697 157.627L317.795 135.984L310.807 93.4754L300.322 100.893L312.802 146.295Z" fill="#FFF6FF"/>
</g>
<g filter="url(#filter1_d_273_303)">
<path d="M436.32 118.334L430 88.5419H454.375L481.459 75L506.738 88.5419L497.71 111.112L481.459 88.5419L460.695 93.9587L454.375 130.07L436.32 118.334Z" fill="#FF6B91"/>
<path d="M448.056 117.432L446.25 89.4449V85.8337H460.695L472.431 79.5141L460.695 93.9589L455.278 123.751L448.056 117.432Z" fill="#C43865"/>
<path d="M497.71 89.4449L479.654 81.3197L497.71 79.5141L506.738 84.0281V88.5421L500.418 103.89L497.71 99.3756V89.4449Z" fill="#C43865"/>
<path d="M441.736 117.432L435.417 85.8338L436.32 82.7934L430.903 82.2226L430 87.6394L436.32 118.334L454.375 130.071L455.278 123.751L448.056 117.432H441.736Z" fill="#FFCAE9"/>
<path d="M491.39 102.084L497.71 99.3757L500.418 103.89L497.71 111.112L491.39 102.084Z" fill="#FFCAE9"/>
<path d="M446.25 124.654L441.736 117.432L435.417 85.8338L436.32 83.1254L430.903 82.2226L430 87.6394L436.32 118.334L446.25 124.654Z" fill="#FFF6FF"/>
</g>
<g filter="url(#filter2_di_273_303)">
<path d="M83.917 70.6721L87.373 74.8961L83.789 90.1281L62.669 86.1601L55.757 73.8721C56.141 73.2321 56.525 72.7201 56.525 72.7201L55.629 70.8001C55.629 70.8001 54.861 70.8001 54.861 69.5201C54.733 68.1121 55.117 67.6001 54.861 67.0881C54.477 66.7041 53.581 65.9361 53.581 65.9361L52.429 65.1681C52.429 65.1681 51.789 65.4241 51.533 64.1441C51.277 62.8641 52.429 62.0961 51.533 62.2241C51.021 62.2241 50.381 62.6081 49.869 62.9921L47.181 58.2561L46.797 69.6481L42.445 89.4881H28.493L19.917 81.0401L20.557 69.3921C20.813 69.2641 21.197 69.0081 21.709 68.7521C23.885 67.3441 24.653 70.9281 23.885 67.3441C23.117 63.6321 22.861 62.7361 22.861 62.7361C22.861 62.7361 22.861 61.2001 22.861 61.0721C22.861 60.9441 24.781 59.6641 24.269 58.0001C23.629 56.3361 23.117 55.9521 22.861 54.9281C22.605 54.1601 22.221 51.9841 21.709 50.8321L22.861 31.6321L27.597 29.9681C27.597 29.9681 25.293 27.7921 23.117 25.7441L24.141 8.20808L39.117 0.400085L74.957 2.83208L79.181 7.18409L69.581 13.2001L81.741 9.87209L87.117 15.3761L79.821 42.5121L69.453 53.0081L81.357 67.6001C77.005 66.3201 69.325 64.1441 69.325 64.1441L83.917 70.6721ZM59.213 39.6961L66.381 25.3601L58.061 19.6001L47.053 18.0641L46.541 36.2401L59.213 39.6961ZM139.096 69.6481L148.44 72.3361L153.688 78.8641L147.16 89.8721H109.016H101.72L88.152 60.8161L89.304 49.1681C89.304 49.1681 89.688 44.4321 90.712 43.4081C91.736 42.3841 91.352 41.3601 91.864 39.1841C92.376 37.0081 94.296 37.6481 94.168 37.3921C94.04 37.0081 93.912 36.2401 93.272 33.4241C92.888 31.8881 91.992 31.5041 90.968 31.3761L92.376 17.8081L101.72 17.4241L92.76 13.9681L93.144 10.1281L103.512 0.400085H125.4C126.296 1.80809 127.704 3.60009 129.112 3.47208C131.288 3.21609 130.52 1.16809 132.952 2.57609C134.232 3.21609 135.256 1.80809 136.024 0.400085H144.984L153.688 17.9361L148.056 21.6481H120.024V32.5281H141.528V42.1281L137.432 51.9841L120.024 54.8001V64.7841L139.352 61.0721L145.368 68.4961L139.096 69.6481ZM212.112 48.6561L227.6 41.2321L236.816 53.0081L232.336 70.2881C229.008 71.8241 228.88 72.9761 228.88 72.9761C228.88 72.9761 229.264 72.4641 228.624 74.1281C227.984 75.6641 227.216 77.2001 227.216 77.2001C227.216 77.2001 227.728 76.5601 227.472 78.3521C227.216 80.1441 226.32 81.8081 226.32 81.8081V84.2401L228.496 85.6481L225.296 98.0641L216.464 103.568L203.024 88.9761L182.288 87.3121L163.856 75.6641L160.656 58.6401L167.312 56.5921L160.016 55.1841L154.256 23.3121L157.968 19.4721C158.864 19.8561 159.632 19.9841 159.632 19.9841L161.424 18.1921H162.832C162.832 18.1921 163.856 18.7041 167.056 14.8641C170.256 11.0241 167.056 14.8641 168.208 11.5361C168.848 9.61609 168.592 9.36008 168.08 9.23209L172.688 4.62408L214.544 0.784088L223.12 9.48809L207.888 10.7681L227.088 13.4561L239.632 26.2561L213.776 39.1841L207.12 27.4081L190.992 30.3521L181.136 39.1841L189.584 61.0721L208.4 59.6641L210.32 54.0321L215.568 53.3921L210.96 51.9841L212.112 48.6561ZM270.476 74.3841C270.476 74.3841 271.372 75.1521 271.628 75.6641C271.884 76.0481 273.036 78.0961 273.036 78.0961L264.076 90.1281H251.148L241.42 83.9841L241.804 75.0241L249.612 72.2081L242.06 70.9281L242.7 59.1521C244.108 58.5121 245.388 57.7441 245.004 56.3361C244.62 54.4161 243.852 53.9041 243.852 53.0081C243.852 52.1121 244.876 50.4481 245.132 48.6561C245.26 46.9921 246.668 47.5041 245.516 45.2001C244.236 42.8961 243.596 41.3601 243.596 41.3601L245.132 11.2801L260.748 0.400085L264.332 6.67209C264.588 7.05609 263.564 7.44009 264.332 8.84809C265.1 10.3841 265.228 11.1521 265.228 12.4321C265.228 13.5841 268.3 13.7121 268.428 13.9681L273.036 22.1601V34.7041L264.332 37.6481L273.036 39.3121V66.5761C272.14 66.8321 270.988 67.2161 270.476 68.2401C269.452 70.0321 270.476 70.6721 270.476 71.6961C270.604 72.7201 270.476 74.3841 270.476 74.3841ZM335.27 77.5841C335.654 80.4001 335.654 80.4001 335.654 80.4001L333.862 86.2881L288.678 90.1281L284.326 83.2161L290.726 80.1441C290.726 80.1441 286.118 80.2721 282.534 80.5281L276.006 70.1601L288.166 58.0001L314.15 65.8081L314.406 60.1761L292.262 51.2161L276.134 27.2801L279.718 21.3921C280.23 21.1361 280.87 20.8801 281.51 20.6241C283.43 19.9841 282.662 20.2401 283.558 18.8321C284.198 17.9361 283.942 17.9361 283.686 17.9361C284.07 17.8081 284.966 17.1681 284.838 16.4001C284.71 15.5041 285.606 14.4801 285.606 13.8401C285.606 13.2001 287.142 12.8161 287.142 12.8161L288.294 11.4081C288.294 11.4081 288.294 10.3841 287.398 8.72009C287.398 8.59209 287.398 8.46409 287.27 8.46409L292.134 0.400085L331.686 2.19209L334.758 6.28809L324.646 7.95209L337.318 10.1281L343.206 18.3201C343.206 18.3201 332.198 27.2801 331.43 27.2801L300.966 19.8561L302.63 29.9681L311.974 33.5521L317.734 40.4641L318.502 36.1121L336.55 43.1521L344.102 53.2641L340.134 66.4481L338.598 66.9601L337.574 69.2641L337.19 71.6961L335.91 73.3601C335.27 74.5121 335.142 75.0241 335.27 75.9201C335.398 76.8161 334.758 74.6401 335.27 77.5841ZM412.846 0.784088L419.118 10.5121L404.782 25.4881L394.158 24.4641L394.414 30.4801L388.27 36.6241L394.798 37.5201L396.206 72.3361L387.246 89.7441H374.958L367.534 77.3281L368.046 64.4001L368.174 62.7361C368.302 62.4801 368.686 62.2241 368.942 61.8401C372.014 59.1521 373.166 58.8961 372.142 57.6161C371.118 56.4641 368.686 55.6961 368.942 53.5201C369.198 51.4721 369.198 48.4001 369.582 48.0161C369.966 47.5041 371.246 46.9921 369.582 45.2001C369.326 44.9441 369.07 44.6881 368.814 44.4321L369.582 23.6961L354.862 24.4641L343.214 16.6561L345.902 9.10409L356.014 7.31209L347.182 5.64809L348.974 0.784088H412.846ZM469.721 69.6481L479.065 72.3361L484.313 78.8641L477.785 89.8721H439.641H432.345L418.777 60.8161L419.929 49.1681C419.929 49.1681 420.313 44.4321 421.337 43.4081C422.361 42.3841 421.977 41.3601 422.489 39.1841C423.001 37.0081 424.921 37.6481 424.793 37.3921C424.665 37.0081 424.537 36.2401 423.897 33.4241C423.513 31.8881 422.617 31.5041 421.593 31.3761L423.001 17.8081L432.345 17.4241L423.385 13.9681L423.769 10.1281L434.137 0.400085H456.025C456.921 1.80809 458.329 3.60009 459.737 3.47208C461.913 3.21609 461.145 1.16809 463.577 2.57609C464.857 3.21609 465.881 1.80809 466.649 0.400085H475.609L484.313 17.9361L478.681 21.6481H450.649V32.5281H472.153V42.1281L468.057 51.9841L450.649 54.8001V64.7841L469.977 61.0721L475.993 68.4961L469.721 69.6481ZM550.417 70.6721L553.873 74.8961L550.289 90.1281L529.169 86.1601L522.257 73.8721C522.641 73.2321 523.025 72.7201 523.025 72.7201L522.129 70.8001C522.129 70.8001 521.361 70.8001 521.361 69.5201C521.233 68.1121 521.617 67.6001 521.361 67.0881C520.977 66.7041 520.081 65.9361 520.081 65.9361L518.929 65.1681C518.929 65.1681 518.289 65.4241 518.033 64.1441C517.777 62.8641 518.929 62.0961 518.033 62.2241C517.521 62.2241 516.881 62.6081 516.369 62.9921L513.681 58.2561L513.297 69.6481L508.945 89.4881H494.993L486.417 81.0401L487.057 69.3921C487.313 69.2641 487.697 69.0081 488.209 68.7521C490.385 67.3441 491.153 70.9281 490.385 67.3441C489.617 63.6321 489.361 62.7361 489.361 62.7361C489.361 62.7361 489.361 61.2001 489.361 61.0721C489.361 60.9441 491.281 59.6641 490.769 58.0001C490.129 56.3361 489.617 55.9521 489.361 54.9281C489.105 54.1601 488.721 51.9841 488.209 50.8321L489.361 31.6321L494.097 29.9681C494.097 29.9681 491.793 27.7921 489.617 25.7441L490.641 8.20808L505.617 0.400085L541.457 2.83208L545.681 7.18409L536.081 13.2001L548.241 9.87209L553.617 15.3761L546.321 42.5121L535.953 53.0081L547.857 67.6001C543.505 66.3201 535.825 64.1441 535.825 64.1441L550.417 70.6721ZM525.713 39.6961L532.881 25.3601L524.561 19.6001L513.553 18.0641L513.041 36.2401L525.713 39.6961Z" fill="#FF6B91"/>
</g>
<defs>
<filter id="filter0_d_273_303" x="210" y="42.9885" width="170.9" height="141.639" filterUnits="userSpaceOnUse" color-interpolation-filters="sRGB">
<feFlood flood-opacity="0" result="BackgroundImageFix"/>
<feColorMatrix in="SourceAlpha" type="matrix" values="0 0 0 0 0 0 0 0 0 0 0 0 0 0 0 0 0 0 127 0" result="hardAlpha"/>
<feOffset dy="-3"/>
<feGaussianBlur stdDeviation="15"/>
<feComposite in2="hardAlpha" operator="out"/>
<feColorMatrix type="matrix" values="0 0 0 0 1 0 0 0 0 1 0 0 0 0 1 0 0 0 0.5 0"/>
<feBlend mode="normal" in2="BackgroundImageFix" result="effect1_dropShadow_273_303"/>
<feBlend mode="normal" in="SourceGraphic" in2="effect1_dropShadow_273_303" result="shape"/>
</filter>
<filter id="filter1_d_273_303" x="400" y="42" width="136.738" height="115.071" filterUnits="userSpaceOnUse" color-interpolation-filters="sRGB">
<feFlood flood-opacity="0" result="BackgroundImageFix"/>
<feColorMatrix in="SourceAlpha" type="matrix" values="0 0 0 0 0 0 0 0 0 0 0 0 0 0 0 0 0 0 127 0" result="hardAlpha"/>
<feOffset dy="-3"/>
<feGaussianBlur stdDeviation="15"/>
<feComposite in2="hardAlpha" operator="out"/>
<feColorMatrix type="matrix" values="0 0 0 0 1 0 0 0 0 1 0 0 0 0 1 0 0 0 0.5 0"/>
<feBlend mode="normal" in2="BackgroundImageFix" result="effect1_dropShadow_273_303"/>
<feBlend mode="normal" in="SourceGraphic" in2="effect1_dropShadow_273_303" result="shape"/>
</filter>
<filter id="filter2_di_273_303" x="19.917" y="0.400085" width="537.956" height="109.168" filterUnits="userSpaceOnUse" color-interpolation-filters="sRGB">
<feFlood flood-opacity="0" result="BackgroundImageFix"/>
<feColorMatrix in="SourceAlpha" type="matrix" values="0 0 0 0 0 0 0 0 0 0 0 0 0 0 0 0 0 0 127 0" result="hardAlpha"/>
<feOffset dx="2" dy="4"/>
<feGaussianBlur stdDeviation="1"/>
<feComposite in2="hardAlpha" operator="out"/>
<feColorMatrix type="matrix" values="0 0 0 0 0.760784 0 0 0 0 0.262745 0 0 0 0 0.423529 0 0 0 1 0"/>
<feBlend mode="normal" in2="BackgroundImageFix" result="effect1_dropShadow_273_303"/>
<feBlend mode="normal" in="SourceGraphic" in2="effect1_dropShadow_273_303" result="shape"/>
<feColorMatrix in="SourceAlpha" type="matrix" values="0 0 0 0 0 0 0 0 0 0 0 0 0 0 0 0 0 0 127 0" result="hardAlpha"/>
<feOffset dx="2" dy="4"/>
<feGaussianBlur stdDeviation="0.75"/>
<feComposite in2="hardAlpha" operator="arithmetic" k2="-1" k3="1"/>
<feColorMatrix type="matrix" values="0 0 0 0 1 0 0 0 0 0.898039 0 0 0 0 0.901961 0 0 0 0.75 0"/>
<feBlend mode="normal" in2="shape" result="effect2_innerShadow_273_303"/>
</filter>
</defs>
</svg>
