<svg id="svg" version="1.1" xmlns="http://www.w3.org/2000/svg" xmlns:xlink="http://www.w3.org/1999/xlink" width="400" height="491.9614147909968" viewBox="0, 0, 400,491.9614147909968"><g id="svgg"><path id="path0" d="M85.755 17.246 C 85.717 17.284,84.819 17.393,83.759 17.488 C 78.275 17.977,67.007 21.494,65.595 23.157 C 65.506 23.261,64.801 23.671,64.028 24.068 C 62.705 24.747,61.135 25.836,58.521 27.886 C 56.644 29.359,51.581 34.413,51.002 35.392 C 50.704 35.898,50.281 36.497,50.063 36.725 C 46.735 40.189,41.951 51.151,41.182 57.074 C 40.433 62.841,39.881 66.905,39.389 70.257 C 38.882 73.717,38.768 74.453,37.765 80.707 C 37.495 82.387,37.208 84.268,37.125 84.887 C 36.309 91.010,35.931 93.629,35.685 94.855 C 35.092 97.814,34.689 102.506,34.767 105.540 C 34.812 107.260,34.749 108.766,34.629 108.886 C 34.509 109.006,34.557 109.281,34.735 109.496 C 34.913 109.711,35.110 110.447,35.172 111.133 C 35.484 114.585,38.324 123.684,39.773 125.875 C 40.004 126.224,40.193 126.751,40.193 127.047 C 40.193 127.342,40.410 127.667,40.675 127.769 C 40.941 127.871,41.158 128.101,41.158 128.279 C 41.158 128.562,41.671 129.394,44.051 132.971 C 44.853 134.176,47.069 136.789,47.669 137.237 C 47.978 137.468,48.232 137.832,48.232 138.045 C 48.232 138.258,48.602 138.711,49.056 139.052 C 49.889 139.677,50.593 140.268,52.132 141.631 C 57.973 146.805,68.763 151.207,78.939 152.566 C 81.061 152.850,83.521 153.213,84.405 153.372 C 103.215 156.770,117.162 153.429,129.764 142.509 C 136.713 136.487,143.339 125.405,144.559 117.765 C 144.679 117.014,144.903 116.399,145.057 116.399 C 145.211 116.399,145.338 115.739,145.338 114.933 C 145.338 114.127,145.485 112.861,145.664 112.120 C 145.844 111.378,146.128 109.686,146.296 108.360 C 146.463 107.034,146.832 104.429,147.116 102.572 C 147.399 100.715,147.697 98.690,147.778 98.071 C 147.859 97.452,148.133 95.498,148.388 93.730 C 148.642 91.961,149.018 89.285,149.222 87.781 C 149.427 86.278,149.725 84.252,149.886 83.280 C 150.047 82.307,150.311 80.498,150.471 79.260 C 150.632 78.023,150.931 76.214,151.136 75.241 C 151.717 72.489,151.793 63.257,151.256 60.772 C 151.007 59.622,150.726 58.107,150.631 57.405 C 150.411 55.793,148.071 48.933,147.010 46.793 C 139.695 32.037,125.033 21.445,109.646 19.803 C 108.674 19.699,106.431 19.397,104.662 19.131 C 102.894 18.865,100.000 18.447,98.232 18.202 C 96.463 17.956,94.799 17.666,94.534 17.557 C 94.092 17.376,85.915 17.086,85.755 17.246 M75.095 63.223 C 78.720 65.598,76.598 74.590,72.412 74.597 C 68.110 74.604,67.394 66.589,71.395 63.222 C 72.571 62.232,73.584 62.232,75.095 63.223 M117.784 70.671 C 120.673 73.864,118.646 81.994,114.961 81.994 C 111.533 81.994,109.924 77.961,111.582 73.528 C 112.695 70.554,116.212 68.934,117.784 70.671 " stroke="none" fill="#fbfbfb" fill-rule="evenodd"></path><path id="path1" d="M41.044 55.858 C 40.934 56.527,40.860 57.653,40.881 58.360 C 40.906 59.201,41.015 58.820,41.196 57.258 C 41.488 54.740,41.385 53.793,41.044 55.858 M40.244 61.294 C 40.216 61.847,40.121 62.787,40.033 63.384 L 39.874 64.469 40.212 63.391 C 40.398 62.798,40.493 61.857,40.423 61.301 L 40.296 60.289 40.244 61.294 M151.865 68.167 C 151.865 69.140,151.925 69.538,151.999 69.051 C 152.072 68.565,152.072 67.769,151.999 67.283 C 151.925 66.797,151.865 67.195,151.865 68.167 M151.501 72.078 C 151.471 72.902,151.230 74.711,150.965 76.097 C 150.699 77.483,150.507 79.268,150.536 80.064 L 150.590 81.511 150.702 80.225 C 150.763 79.518,151.039 77.635,151.315 76.042 C 151.591 74.449,151.758 72.568,151.686 71.862 L 151.555 70.579 151.501 72.078 M119.046 74.598 C 119.046 75.217,119.112 75.470,119.193 75.161 C 119.274 74.851,119.274 74.345,119.193 74.035 C 119.112 73.726,119.046 73.979,119.046 74.598 M111.024 76.688 C 111.027 77.572,111.089 77.896,111.163 77.407 C 111.237 76.918,111.235 76.195,111.159 75.799 C 111.082 75.404,111.022 75.804,111.024 76.688 M37.460 80.707 C 37.333 81.966,37.299 83.065,37.383 83.149 C 37.467 83.233,37.637 82.270,37.761 81.009 C 37.886 79.748,37.920 78.649,37.838 78.567 C 37.757 78.485,37.586 79.449,37.460 80.707 M149.914 83.280 C 149.914 83.899,149.980 84.152,150.061 83.842 C 150.142 83.533,150.142 83.027,150.061 82.717 C 149.980 82.408,149.914 82.661,149.914 83.280 M36.756 86.013 C 36.757 87.074,36.817 87.469,36.889 86.891 C 36.961 86.313,36.959 85.445,36.886 84.962 C 36.812 84.479,36.754 84.952,36.756 86.013 M36.065 90.252 C 35.566 93.523,35.368 95.890,35.694 94.695 C 36.036 93.438,36.685 88.347,36.524 88.185 C 36.456 88.117,36.249 89.047,36.065 90.252 M148.949 89.389 C 148.949 90.008,149.015 90.261,149.096 89.952 C 149.177 89.642,149.177 89.136,149.096 88.826 C 149.015 88.517,148.949 88.770,148.949 89.389 M148.729 92.042 C 148.211 93.704,147.532 99.963,147.940 99.320 C 148.095 99.075,148.224 98.296,148.227 97.588 C 148.230 96.881,148.432 95.253,148.677 93.971 C 149.066 91.931,149.095 90.869,148.729 92.042 M34.921 97.508 C 34.805 98.260,34.656 100.900,34.591 103.376 L 34.472 107.878 34.711 103.859 C 34.842 101.648,35.061 99.007,35.197 97.990 C 35.480 95.867,35.240 95.448,34.921 97.508 M166.796 99.046 C 162.135 100.212,157.622 103.924,150.614 112.358 C 147.493 116.114,146.281 117.355,145.729 117.358 C 145.326 117.361,144.943 117.544,144.878 117.765 C 138.883 138.283,124.786 151.174,104.709 154.499 L 103.470 154.704 103.584 166.674 C 103.732 182.231,104.034 181.676,95.784 180.970 C 90.596 180.525,89.711 180.139,89.711 178.322 C 89.711 176.219,91.614 175.648,96.785 176.200 L 98.232 176.354 98.316 165.669 L 98.401 154.984 96.709 154.978 C 94.289 154.968,87.887 154.194,80.868 153.060 C 79.807 152.889,77.781 152.586,76.367 152.387 C 70.994 151.632,63.745 149.286,61.581 147.602 C 61.002 147.152,60.980 147.153,61.336 147.616 C 61.748 148.153,60.597 149.706,55.788 155.098 C 54.727 156.288,52.773 158.879,51.447 160.857 C 49.853 163.235,48.563 164.783,47.640 165.426 L 46.246 166.399 40.992 166.399 C 35.075 166.399,34.026 166.063,33.827 164.106 C 33.620 162.063,34.809 161.564,39.657 161.657 L 43.891 161.738 45.557 159.245 C 47.509 156.323,53.534 148.739,55.647 146.543 C 56.455 145.703,56.997 145.016,56.851 145.016 C 56.705 145.016,55.975 144.574,55.229 144.033 C 54.482 143.492,53.820 143.202,53.758 143.390 C 53.695 143.577,53.512 143.730,53.350 143.730 C 52.129 143.730,42.868 149.614,38.925 152.896 C 32.893 157.916,23.508 172.196,20.431 181.035 C 12.451 203.962,15.287 232.588,27.096 248.298 C 28.331 249.941,29.901 252.109,30.585 253.114 C 38.848 265.262,51.635 271.623,69.606 272.522 C 71.556 272.620,75.466 272.908,78.296 273.163 C 81.125 273.417,86.334 273.775,89.871 273.956 C 98.378 274.394,100.543 274.544,104.180 274.950 C 119.433 276.652,134.835 282.933,144.262 291.295 C 146.058 292.888,153.192 300.625,153.007 300.779 C 152.945 300.831,151.580 301.448,149.975 302.151 C 139.251 306.842,129.480 315.978,126.655 323.957 C 125.129 328.267,124.164 340.874,125.070 344.652 C 126.161 349.199,131.208 350.887,134.727 347.882 C 135.788 346.976,138.892 345.338,139.547 345.338 C 139.988 345.338,142.205 348.739,143.213 350.965 C 146.119 357.376,151.221 357.311,155.709 350.804 C 160.955 343.197,169.744 333.906,170.733 334.920 C 170.888 335.079,172.530 338.468,174.381 342.451 C 176.232 346.435,178.458 350.920,179.327 352.419 C 188.994 369.088,189.473 369.865,192.334 373.546 C 194.234 375.991,194.374 375.454,191.238 377.761 C 183.283 383.614,174.902 393.922,173.475 399.609 C 170.358 412.032,171.645 424.014,176.904 431.534 C 177.670 432.628,178.441 433.733,178.617 433.989 C 178.794 434.246,180.241 435.702,181.833 437.224 C 197.434 452.147,198.126 453.610,191.829 458.349 C 181.940 465.792,180.070 476.532,187.710 482.002 C 189.315 483.152,189.551 483.233,190.027 482.802 C 190.341 482.518,191.732 482.194,193.430 482.008 C 212.004 479.979,215.801 478.812,226.273 471.919 C 233.887 466.906,236.532 464.392,241.893 457.074 C 243.059 455.482,244.383 453.773,244.836 453.276 C 245.289 452.778,245.659 452.307,245.659 452.228 C 245.659 451.892,243.207 445.915,242.040 443.408 C 238.969 436.809,238.706 435.691,240.225 435.691 C 243.209 435.691,256.304 431.176,260.932 428.551 C 262.347 427.749,265.024 426.333,266.881 425.405 C 268.738 424.477,271.559 422.819,273.151 421.720 C 274.743 420.621,277.492 418.878,279.260 417.847 C 286.944 413.369,294.554 407.751,298.875 403.367 C 313.443 388.587,321.775 381.177,330.903 374.883 C 344.181 365.727,348.581 364.272,366.238 363.193 C 389.513 361.771,395.005 359.758,394.451 352.851 C 394.100 348.481,387.101 341.414,380.021 338.283 L 378.557 337.635 378.343 332.669 C 377.698 317.706,375.907 312.133,370.924 309.579 C 366.065 307.089,356.123 310.746,346.522 318.554 C 345.139 319.678,343.457 320.963,342.784 321.409 L 341.559 322.219 335.490 319.921 C 327.934 317.058,328.508 317.407,328.005 315.378 C 326.493 309.280,319.913 294.204,318.016 292.490 C 313.604 288.505,304.667 291.541,296.068 299.948 C 290.991 304.911,291.642 304.721,286.930 302.616 C 285.364 301.917,282.618 300.897,280.828 300.349 L 277.572 299.354 277.733 293.005 C 278.081 279.363,275.252 271.475,268.950 268.513 C 263.978 266.176,253.752 269.456,245.694 275.974 C 241.342 279.494,242.414 279.736,234.807 273.522 C 231.965 271.200,231.821 272.393,235.990 263.732 C 240.650 254.049,241.917 249.597,241.361 244.862 C 240.447 237.091,235.857 234.727,221.681 234.727 L 214.479 234.727 214.649 232.717 C 215.258 225.511,215.452 224.532,216.350 224.130 C 221.875 221.659,231.571 214.942,233.608 212.176 C 239.713 203.882,236.592 195.452,223.749 185.545 L 219.391 182.184 219.005 179.275 C 218.793 177.676,218.309 175.012,217.929 173.357 C 217.317 170.689,217.292 170.263,217.703 169.609 C 217.958 169.203,219.084 167.518,220.204 165.866 C 232.465 147.785,231.214 135.050,216.903 132.268 C 213.532 131.612,200.866 132.053,196.515 132.978 L 194.154 133.479 192.495 131.921 C 191.583 131.064,189.788 129.521,188.508 128.492 C 186.595 126.954,186.119 126.384,185.838 125.288 C 185.132 122.540,184.109 119.677,182.718 116.559 C 181.930 114.791,180.877 112.157,180.378 110.707 C 177.340 101.863,172.420 97.639,166.796 99.046 M147.348 101.125 C 147.352 101.833,147.417 102.084,147.494 101.684 C 147.571 101.284,147.568 100.706,147.488 100.398 C 147.407 100.091,147.344 100.418,147.348 101.125 M147.020 103.537 C 147.020 104.156,147.086 104.409,147.167 104.100 C 147.248 103.790,147.248 103.284,147.167 102.974 C 147.086 102.665,147.020 102.918,147.020 103.537 M146.497 106.190 C 146.137 108.069,145.558 112.898,145.485 114.630 L 145.403 116.559 145.641 114.630 C 145.771 113.569,146.037 111.688,146.230 110.450 C 146.702 107.439,146.912 105.466,146.760 105.466 C 146.692 105.466,146.574 105.792,146.497 106.190 M125.668 161.090 C 131.206 165.102,129.961 178.155,123.932 179.286 C 115.060 180.950,110.596 169.681,117.198 162.285 C 119.245 159.992,123.353 159.413,125.668 161.090 M30.360 191.803 C 32.036 193.612,32.386 199.999,30.959 202.733 C 28.718 207.027,24.864 206.259,24.256 201.397 C 23.419 194.698,27.337 188.541,30.360 191.803 M64.936 193.825 C 67.193 196.083,67.153 205.857,64.877 207.940 C 62.374 210.232,59.440 208.228,58.902 203.859 C 58.069 197.096,61.876 190.765,64.936 193.825 M96.216 292.394 C 96.169 293.659,95.924 296.720,95.672 299.196 C 95.419 301.672,95.127 306.664,95.022 310.289 C 94.731 320.346,94.238 327.037,93.710 328.104 C 93.123 329.289,93.128 329.426,93.737 328.817 C 94.461 328.093,94.790 324.716,95.167 314.148 C 95.457 306.037,95.783 301.108,96.630 292.061 C 96.715 291.143,96.677 290.325,96.543 290.243 C 96.410 290.160,96.262 291.128,96.216 292.394 M86.977 290.864 C 64.826 294.295,49.323 306.600,44.825 324.320 C 41.618 336.955,45.614 342.235,55.627 338.597 C 57.661 337.858,59.520 337.227,59.759 337.196 C 60.017 337.162,61.088 338.896,62.402 341.479 C 65.328 347.227,66.999 348.501,70.376 347.555 C 72.318 347.011,79.239 340.090,78.752 339.179 C 78.271 338.281,78.391 337.696,79.748 334.315 C 80.458 332.545,81.333 329.924,81.692 328.491 C 82.052 327.057,82.987 324.220,83.770 322.186 C 86.729 314.506,87.912 311.192,90.426 303.537 C 93.595 293.885,94.819 290.741,95.476 290.564 C 96.781 290.213,89.531 290.469,86.977 290.864 M107.451 392.794 C 101.701 405.842,104.271 419.337,114.867 431.724 C 118.514 435.988,121.222 439.914,121.222 440.938 C 121.222 441.009,120.318 441.619,119.212 442.295 C 106.392 450.133,101.813 457.433,104.411 465.888 C 105.553 469.605,110.873 473.699,113.350 472.766 C 114.054 472.501,117.123 471.578,120.171 470.715 C 135.517 466.369,148.510 459.551,159.088 450.294 C 160.987 448.632,162.777 447.271,163.067 447.270 C 165.367 447.257,167.329 436.455,165.651 433.047 C 165.239 432.212,165.009 431.344,165.140 431.118 C 165.270 430.892,165.266 430.806,165.132 430.927 C 164.834 431.195,151.674 424.499,149.196 422.820 C 147.338 421.561,143.600 419.132,139.550 416.553 C 132.080 411.796,124.424 405.417,114.052 395.306 C 111.257 392.582,108.870 390.356,108.746 390.360 C 108.622 390.363,108.039 391.459,107.451 392.794 M190.675 483.669 C 190.764 483.756,191.339 483.997,191.954 484.205 C 192.569 484.413,192.931 484.445,192.758 484.276 C 192.585 484.107,192.010 483.865,191.479 483.740 C 190.949 483.614,190.587 483.582,190.675 483.669 M196.302 485.227 C 197.010 485.374,197.950 485.485,198.392 485.474 C 199.668 485.443,197.560 484.964,196.141 484.962 L 195.016 484.961 196.302 485.227 M212.621 485.431 C 212.930 485.512,213.436 485.512,213.746 485.431 C 214.055 485.350,213.802 485.284,213.183 485.284 C 212.564 485.284,212.311 485.350,212.621 485.431 " stroke="none" fill="#049252" fill-rule="evenodd"></path><path id="path2" d="M39.946 65.273 C 39.946 65.892,40.012 66.145,40.093 65.836 C 40.174 65.527,40.174 65.020,40.093 64.711 C 40.012 64.401,39.946 64.654,39.946 65.273 M141.853 125.898 C 141.314 127.080,141.417 127.333,141.999 126.258 C 142.271 125.756,142.434 125.285,142.360 125.211 C 142.287 125.138,142.058 125.447,141.853 125.898 M44.695 134.244 C 45.294 134.863,45.858 135.370,45.946 135.370 C 46.035 135.370,45.616 134.863,45.016 134.244 C 44.416 133.625,43.853 133.119,43.765 133.119 C 43.676 133.119,44.095 133.625,44.695 134.244 M135.999 135.772 C 135.402 136.523,135.167 136.934,135.478 136.685 C 136.063 136.214,137.441 134.405,137.214 134.405 C 137.143 134.405,136.596 135.020,135.999 135.772 M131.652 140.916 L 130.707 141.961 131.752 141.017 C 132.727 140.137,132.945 139.871,132.697 139.871 C 132.641 139.871,132.171 140.342,131.652 140.916 M129.079 143.167 L 128.135 144.212 129.180 143.268 C 130.154 142.388,130.373 142.122,130.124 142.122 C 130.069 142.122,129.599 142.592,129.079 143.167 M126.688 145.055 C 125.568 146.038,125.567 146.039,126.598 145.353 C 127.167 144.974,127.719 144.527,127.823 144.358 C 128.133 143.856,127.876 144.014,126.688 145.055 M121.463 148.415 C 120.261 149.068,120.334 149.339,121.543 148.714 C 122.074 148.439,122.508 148.146,122.508 148.062 C 122.508 147.856,122.473 147.867,121.463 148.415 M75.643 152.312 C 75.953 152.393,76.459 152.393,76.768 152.312 C 77.078 152.231,76.825 152.165,76.206 152.165 C 75.587 152.165,75.334 152.231,75.643 152.312 M81.913 153.282 C 82.311 153.358,82.962 153.358,83.360 153.282 C 83.758 153.205,83.432 153.142,82.637 153.142 C 81.841 153.142,81.515 153.205,81.913 153.282 M88.505 154.241 C 88.814 154.322,89.321 154.322,89.630 154.241 C 89.940 154.160,89.686 154.094,89.068 154.094 C 88.449 154.094,88.195 154.160,88.505 154.241 M102.974 154.562 C 103.284 154.643,103.790 154.643,104.100 154.562 C 104.409 154.482,104.156 154.415,103.537 154.415 C 102.918 154.415,102.665 154.482,102.974 154.562 M94.457 154.890 C 94.857 154.967,95.436 154.964,95.743 154.883 C 96.051 154.803,95.723 154.740,95.016 154.743 C 94.309 154.747,94.057 154.813,94.457 154.890 M97.186 154.884 C 97.496 154.965,98.002 154.965,98.312 154.884 C 98.621 154.803,98.368 154.737,97.749 154.737 C 97.130 154.737,96.877 154.803,97.186 154.884 M97.665 277.078 C 97.090 280.125,96.809 283.610,96.605 290.193 C 96.534 292.492,96.261 296.616,95.997 299.357 C 95.734 302.098,95.364 308.682,95.175 313.987 C 94.816 324.039,94.433 328.382,93.890 328.564 C 92.733 328.951,94.367 348.435,96.313 357.465 C 97.543 363.174,100.822 375.457,101.942 378.551 C 103.069 381.667,108.070 390.338,108.746 390.350 C 108.870 390.352,111.257 392.582,114.052 395.306 C 124.424 405.417,132.080 411.796,139.550 416.553 C 143.635 419.155,147.346 421.566,149.196 422.822 C 154.958 426.731,164.174 430.798,171.493 432.663 C 179.503 434.703,179.250 434.712,177.499 432.429 C 173.421 427.108,171.361 419.645,171.877 412.058 C 172.651 400.674,173.872 396.382,177.839 391.112 C 180.256 387.902,188.160 380.026,191.238 377.761 C 194.374 375.454,194.234 375.991,192.334 373.546 C 189.473 369.865,188.994 369.088,179.327 352.419 C 178.458 350.920,176.232 346.435,174.381 342.451 C 172.530 338.468,170.888 335.079,170.733 334.920 C 169.744 333.906,160.955 343.197,155.709 350.804 C 151.221 357.311,146.119 357.376,143.213 350.965 C 142.205 348.739,139.988 345.338,139.547 345.338 C 138.892 345.338,135.788 346.976,134.727 347.882 C 131.208 350.887,126.161 349.199,125.070 344.652 C 124.164 340.874,125.129 328.267,126.655 323.957 C 129.480 315.978,139.251 306.842,149.975 302.151 C 151.580 301.448,152.945 300.831,153.007 300.779 C 153.192 300.625,146.058 292.888,144.262 291.295 C 134.511 282.646,117.673 275.996,102.412 274.767 C 100.997 274.653,99.470 274.491,99.019 274.407 C 98.220 274.257,98.184 274.328,97.665 277.078 " stroke="none" fill="#04cc73" fill-rule="evenodd"></path><path id="path3" d="M22.491 40.050 C 21.143 41.485,21.410 42.958,23.426 45.204 C 28.987 51.399,32.709 59.304,35.897 71.691 C 36.692 74.779,37.465 77.524,37.614 77.791 C 37.912 78.323,37.862 78.571,38.715 72.347 C 38.994 70.314,39.299 68.143,39.392 67.524 C 39.955 63.784,39.939 63.545,38.913 60.611 C 37.597 56.850,33.926 49.397,31.803 46.177 C 27.685 39.933,24.543 37.866,22.491 40.050 M71.052 63.997 C 68.823 66.383,68.435 71.634,70.361 73.354 C 73.205 75.896,76.527 72.620,76.527 67.274 C 76.527 63.545,73.286 61.605,71.052 63.997 M171.607 65.104 C 168.009 66.981,156.586 75.331,153.038 78.677 C 150.658 80.923,150.505 81.281,149.708 86.495 C 148.828 92.251,148.705 92.201,152.714 87.706 C 157.892 81.902,161.448 78.951,170.211 73.187 C 175.849 69.479,175.884 69.444,175.884 67.691 C 175.884 65.311,173.720 64.002,171.607 65.104 M114.952 70.654 C 110.233 71.336,110.082 81.672,114.791 81.672 C 118.074 81.672,120.217 74.623,117.869 71.545 C 117.396 70.925,116.763 70.440,116.463 70.466 C 116.162 70.493,115.482 70.577,114.952 70.654 M176.001 102.029 C 177.671 104.105,179.357 107.278,180.221 109.968 C 180.533 110.941,181.546 113.473,182.473 115.595 C 184.118 119.364,185.602 123.570,186.011 125.621 C 186.123 126.183,186.424 126.817,186.679 127.029 C 187.069 127.353,187.066 127.267,186.660 126.488 C 186.395 125.979,186.177 125.323,186.176 125.031 C 186.173 124.215,184.075 118.371,182.770 115.547 C 182.129 114.158,181.198 111.838,180.701 110.391 C 179.231 106.107,177.315 102.711,175.386 100.965 C 174.897 100.523,175.174 101.002,176.001 102.029 M157.697 103.939 L 156.752 104.984 157.797 104.040 C 158.772 103.159,158.990 102.894,158.742 102.894 C 158.686 102.894,158.216 103.364,157.697 103.939 M154.165 107.476 L 152.894 108.842 154.260 107.571 C 155.531 106.389,155.775 106.109,155.531 106.109 C 155.479 106.109,154.864 106.724,154.165 107.476 M150.447 111.817 C 149.152 113.364,148.325 114.444,148.610 114.217 C 149.236 113.718,153.161 109.003,152.951 109.003 C 152.869 109.003,151.743 110.269,150.447 111.817 M192.270 131.592 C 193.602 133.011,193.891 133.267,193.891 133.025 C 193.891 132.974,193.203 132.286,192.363 131.498 L 190.836 130.064 192.270 131.592 M225.833 136.270 C 229.168 140.151,229.617 145.823,227.174 153.215 C 226.986 153.784,227.002 153.795,227.318 153.305 C 230.132 148.937,229.421 139.826,225.986 136.249 L 224.369 134.566 225.833 136.270 M53.973 148.955 C 50.346 153.293,46.757 157.920,45.240 160.211 L 44.017 162.058 39.693 162.058 C 34.852 162.058,33.933 162.420,34.145 164.248 C 34.315 165.727,35.825 166.190,40.836 166.302 C 47.214 166.444,47.788 166.086,52.145 159.248 C 52.795 158.229,54.603 155.947,56.165 154.178 C 57.726 152.408,59.545 150.286,60.207 149.463 L 61.411 147.967 59.312 146.813 C 56.646 145.348,57.162 145.140,53.973 148.955 M226.419 154.837 C 225.880 156.019,225.983 156.272,226.565 155.197 C 226.837 154.695,227.000 154.224,226.926 154.150 C 226.853 154.077,226.624 154.386,226.419 154.837 M99.763 155.216 L 98.722 155.346 98.638 166.017 L 98.553 176.688 97.749 176.652 C 97.307 176.632,95.788 176.516,94.373 176.394 C 90.764 176.082,89.622 176.778,90.168 178.955 C 90.455 180.099,91.067 180.288,95.888 180.722 C 100.930 181.177,101.926 180.971,102.806 179.296 C 103.402 178.160,103.408 177.964,103.296 164.550 L 103.215 154.984 102.010 155.035 C 101.346 155.064,100.336 155.145,99.763 155.216 M224.986 158.048 C 224.511 159.015,224.191 159.807,224.275 159.807 C 224.491 159.807,226.113 156.552,225.968 156.408 C 225.903 156.342,225.460 157.080,224.986 158.048 M119.994 160.733 C 112.724 163.275,112.360 176.567,119.502 178.707 C 125.199 180.413,128.939 176.928,128.939 169.911 C 128.939 162.871,125.111 158.943,119.994 160.733 M223.117 161.495 C 222.738 162.247,221.653 164.055,220.706 165.514 C 219.760 166.973,219.058 168.167,219.146 168.167 C 219.235 168.167,220.081 166.973,221.028 165.514 C 222.805 162.775,224.250 160.129,223.968 160.129 C 223.880 160.129,223.497 160.744,223.117 161.495 M218.030 169.336 C 217.663 169.802,217.368 170.345,217.373 170.542 C 217.378 170.739,217.543 170.611,217.740 170.257 C 217.936 169.904,218.316 169.361,218.584 169.051 C 218.852 168.742,218.986 168.489,218.883 168.489 C 218.780 168.489,218.396 168.870,218.030 169.336 M231.048 191.318 C 236.263 197.160,237.857 204.113,235.274 209.755 C 234.816 210.756,234.513 211.576,234.601 211.576 C 235.269 211.576,236.444 207.664,236.584 204.974 C 236.884 199.245,235.485 195.696,231.191 191.289 L 229.183 189.228 231.048 191.318 M27.686 191.549 C 23.846 193.441,22.887 203.704,26.414 205.164 C 30.320 206.782,33.296 198.669,30.864 193.034 C 30.021 191.082,29.309 190.750,27.686 191.549 M61.699 194.253 C 57.621 198.669,57.976 207.485,62.274 208.564 C 65.172 209.291,66.993 204.569,66.214 198.350 C 65.590 193.381,63.911 191.856,61.699 194.253 M233.173 213.165 C 231.470 215.284,223.442 220.653,216.881 224.062 C 216.174 224.430,215.711 224.737,215.852 224.745 C 217.729 224.848,231.937 215.384,233.812 212.781 C 234.764 211.459,234.337 211.715,233.173 213.165 M239.041 238.566 C 239.678 239.351,240.431 240.798,240.716 241.781 C 241.392 244.120,241.850 245.209,241.603 243.891 C 241.159 241.522,240.389 239.818,239.179 238.524 L 237.883 237.138 239.041 238.566 M241.571 246.463 C 241.573 247.347,241.636 247.671,241.710 247.182 C 241.784 246.693,241.782 245.970,241.705 245.574 C 241.629 245.179,241.569 245.579,241.571 246.463 M241.283 248.690 C 241.186 248.943,241.161 249.485,241.226 249.896 C 241.315 250.446,241.389 250.324,241.509 249.437 C 241.677 248.189,241.588 247.895,241.283 248.690 M240.984 251.650 C 240.424 254.178,239.709 256.331,238.713 258.491 C 238.109 259.802,237.667 260.926,237.731 260.990 C 237.795 261.053,238.385 259.928,239.043 258.490 C 240.192 255.976,241.636 251.175,241.334 250.874 C 241.254 250.793,241.097 251.143,240.984 251.650 M34.887 259.164 C 35.578 259.871,36.216 260.450,36.304 260.450 C 36.393 260.450,35.900 259.871,35.209 259.164 C 34.518 258.457,33.881 257.878,33.792 257.878 C 33.704 257.878,34.197 258.457,34.887 259.164 M37.942 261.747 C 40.142 263.808,47.422 268.491,48.423 268.488 C 48.583 268.488,47.484 267.797,45.981 266.953 C 42.746 265.136,40.673 263.757,38.264 261.816 L 36.495 260.391 37.942 261.747 M235.165 265.788 C 234.016 268.193,233.128 270.213,233.191 270.275 C 233.253 270.338,234.264 268.370,235.436 265.902 C 236.608 263.434,237.496 261.415,237.410 261.415 C 237.323 261.415,236.313 263.383,235.165 265.788 M49.839 269.132 C 50.458 269.471,51.109 269.748,51.286 269.748 C 51.463 269.748,51.101 269.471,50.482 269.132 C 49.863 268.793,49.212 268.516,49.035 268.516 C 48.859 268.516,49.220 268.793,49.839 269.132 M272.106 270.537 C 274.690 273.166,277.170 278.564,277.170 281.560 C 277.170 281.954,277.298 282.356,277.454 282.452 C 277.804 282.669,277.068 278.778,276.417 276.966 C 275.352 274.005,273.081 270.661,271.253 269.363 C 270.690 268.963,271.061 269.474,272.106 270.537 M52.582 270.256 C 53.119 270.491,54.131 270.770,54.833 270.875 C 55.696 271.004,55.432 270.861,54.019 270.432 C 51.608 269.700,51.205 269.651,52.582 270.256 M58.521 271.532 C 59.847 271.769,61.801 272.040,62.862 272.135 C 64.697 272.298,64.674 272.286,62.379 271.876 C 61.053 271.639,59.100 271.368,58.039 271.274 C 56.203 271.110,56.226 271.122,58.521 271.532 M65.675 272.578 C 66.162 272.651,66.957 272.651,67.444 272.578 C 67.930 272.504,67.532 272.444,66.559 272.444 C 65.587 272.444,65.189 272.504,65.675 272.578 M247.704 273.738 C 246.668 274.504,245.603 275.399,245.338 275.729 C 245.072 276.058,245.653 275.686,246.628 274.900 C 247.604 274.115,248.761 273.227,249.201 272.927 C 249.640 272.627,249.907 272.373,249.794 272.364 C 249.681 272.355,248.741 272.973,247.704 273.738 M70.418 272.884 C 71.568 272.934,74.968 273.198,77.974 273.469 C 86.542 274.242,98.770 274.845,97.588 274.436 C 97.412 274.375,93.939 274.160,89.871 273.960 C 85.804 273.759,80.450 273.387,77.974 273.132 C 75.498 272.878,72.315 272.698,70.900 272.731 C 68.434 272.790,68.414 272.796,70.418 272.884 M277.694 290.963 C 277.716 295.418,277.791 299.120,277.861 299.190 C 278.100 299.429,278.127 285.370,277.890 284.116 C 277.759 283.427,277.671 286.508,277.694 290.963 M318.215 292.283 C 319.820 294.023,321.109 296.537,323.153 301.916 C 323.996 304.134,325.271 307.395,325.987 309.164 C 326.702 310.932,327.578 313.465,327.933 314.791 C 328.288 316.117,328.586 316.841,328.596 316.399 C 328.665 313.230,320.605 294.270,318.276 292.122 L 316.881 290.837 318.215 292.283 M295.152 300.164 C 292.927 302.373,291.193 304.180,291.298 304.180 C 291.403 304.180,293.293 302.371,295.498 300.161 C 297.704 297.950,299.438 296.143,299.352 296.145 C 299.266 296.147,297.376 297.955,295.152 300.164 M373.221 310.907 C 375.342 313.044,376.493 315.933,377.697 322.144 C 377.778 322.563,377.905 322.845,377.978 322.772 C 378.175 322.576,376.990 317.116,376.386 315.434 C 375.715 313.566,373.822 310.807,372.724 310.096 C 372.151 309.726,372.317 309.996,373.221 310.907 M377.964 326.206 C 378.362 332.097,378.732 335.753,378.954 335.964 C 379.074 336.079,379.087 335.595,378.982 334.887 C 378.877 334.180,378.631 331.286,378.436 328.457 C 378.241 325.627,378.006 323.240,377.914 323.151 C 377.823 323.063,377.845 324.437,377.964 326.206 M90.653 330.525 C 87.010 332.929,83.122 336.254,77.680 341.622 C 75.501 343.770,75.334 343.972,77.170 342.236 C 78.674 340.815,80.294 339.401,80.772 339.092 C 81.250 338.784,82.267 337.929,83.031 337.192 C 85.113 335.186,88.981 332.090,91.158 330.687 C 92.219 330.004,93.147 329.403,93.221 329.353 C 93.294 329.302,93.285 329.190,93.199 329.104 C 93.113 329.019,91.967 329.658,90.653 330.525 M55.788 338.657 C 51.054 340.390,49.029 340.463,46.658 338.990 C 45.736 338.416,45.069 338.089,45.176 338.262 C 46.142 339.825,49.732 340.745,52.292 340.085 C 54.529 339.509,60.502 337.337,59.807 337.352 C 59.542 337.358,57.733 337.945,55.788 338.657 M390.498 345.659 C 393.114 348.540,393.522 348.927,392.365 347.428 C 391.820 346.720,390.749 345.563,389.987 344.855 C 388.996 343.935,389.141 344.164,390.498 345.659 M73.151 346.189 C 72.183 347.055,72.110 347.175,72.858 346.675 C 73.747 346.080,74.865 344.997,74.557 345.028 C 74.491 345.035,73.859 345.557,73.151 346.189 M65.113 346.771 C 66.563 348.008,69.011 348.553,70.486 347.968 C 70.789 347.848,70.128 347.749,69.016 347.749 C 67.355 347.749,66.741 347.589,65.571 346.848 C 64.215 345.990,64.193 345.986,65.113 346.771 M392.911 358.161 C 392.284 358.818,391.271 359.526,390.660 359.736 C 389.672 360.075,389.656 360.097,390.514 359.937 C 391.620 359.731,393.401 358.470,393.898 357.543 C 394.350 356.699,394.244 356.765,392.911 358.161 M388.103 360.497 C 385.406 361.597,378.451 362.466,366.399 363.209 C 361.801 363.492,357.978 363.783,357.905 363.856 C 357.700 364.057,358.515 364.025,366.939 363.500 C 379.080 362.744,385.651 361.878,388.427 360.670 C 389.669 360.129,389.381 359.976,388.103 360.497 M352.342 364.623 C 349.518 365.219,346.173 366.216,346.363 366.406 C 346.420 366.463,347.666 366.161,349.133 365.736 C 350.600 365.311,353.131 364.758,354.758 364.507 C 356.494 364.239,357.186 364.047,356.431 364.041 C 355.723 364.036,353.884 364.298,352.342 364.623 M341.953 368.301 C 338.675 369.919,331.790 374.208,331.363 374.899 C 331.260 375.065,332.807 374.110,334.800 372.776 C 336.794 371.442,340.161 369.499,342.283 368.460 C 344.405 367.420,345.993 366.567,345.811 366.565 C 345.630 366.562,343.894 367.343,341.953 368.301 M327.653 377.367 C 325.973 378.522,324.236 379.841,323.794 380.298 C 323.269 380.842,323.492 380.740,324.437 380.001 C 325.233 379.380,327.006 378.123,328.376 377.207 C 329.747 376.292,330.868 375.475,330.868 375.392 C 330.868 375.157,330.884 375.148,327.653 377.367 M319.775 383.789 L 316.881 386.548 319.855 383.891 C 322.539 381.493,323.009 381.028,322.749 381.029 C 322.705 381.029,321.367 382.271,319.775 383.789 M307.074 395.583 C 302.741 399.856,301.077 401.595,303.376 399.448 C 307.630 395.474,315.391 387.768,315.108 387.798 C 315.022 387.807,311.407 391.310,307.074 395.583 M296.785 405.845 C 295.152 407.374,295.047 407.520,296.302 406.510 C 297.803 405.303,299.301 403.841,299.005 403.873 C 298.933 403.880,297.934 404.768,296.785 405.845 M290.514 410.637 C 288.607 412.079,288.350 412.486,290.139 411.232 C 291.490 410.284,292.226 409.626,291.900 409.655 C 291.845 409.660,291.222 410.102,290.514 410.637 M285.284 414.280 C 282.536 416.145,281.155 417.203,282.315 416.554 C 283.432 415.929,288.424 412.511,288.424 412.371 C 288.424 412.144,288.490 412.105,285.284 414.280 M277.808 418.905 C 276.662 419.576,274.566 420.928,273.151 421.910 C 271.736 422.891,268.264 424.884,265.434 426.339 C 262.605 427.794,260.145 429.132,259.968 429.312 C 259.162 430.130,270.895 423.793,273.473 422.018 C 275.064 420.922,277.199 419.557,278.215 418.985 C 279.792 418.098,280.353 417.685,279.979 417.685 C 279.932 417.685,278.955 418.234,277.808 418.905 M111.897 429.040 C 111.897 429.095,112.367 429.565,112.942 430.085 L 113.987 431.029 113.043 429.984 C 112.162 429.010,111.897 428.791,111.897 429.040 M256.512 430.792 C 254.965 431.424,253.752 431.995,253.818 432.060 C 253.978 432.221,258.921 430.257,259.309 429.880 C 259.716 429.482,259.734 429.477,256.512 430.792 M113.826 431.290 C 113.826 431.346,114.297 431.816,114.871 432.335 L 115.916 433.280 114.972 432.235 C 114.092 431.261,113.826 431.042,113.826 431.290 M165.113 431.370 C 166.092 431.765,177.868 434.659,177.624 434.444 C 177.314 434.172,165.661 431.161,165.113 431.211 C 164.898 431.231,164.898 431.284,165.113 431.370 M251.507 432.696 C 250.745 432.965,250.177 433.243,250.247 433.312 C 250.394 433.459,253.376 432.480,253.376 432.285 C 253.376 432.084,253.010 432.164,251.507 432.696 M245.659 434.608 C 244.863 434.861,243.136 435.253,241.821 435.478 C 240.276 435.744,239.386 436.053,239.305 436.353 C 239.227 436.641,239.280 436.690,239.445 436.483 C 239.591 436.300,240.723 435.980,241.961 435.773 C 244.186 435.401,248.522 434.148,247.588 434.147 C 247.323 434.147,246.455 434.354,245.659 434.608 M181.476 437.532 C 183.264 439.253,186.256 442.110,188.125 443.883 C 189.994 445.656,188.619 444.253,185.070 440.765 C 181.521 437.278,178.529 434.420,178.421 434.415 C 178.313 434.409,179.688 435.812,181.476 437.532 M163.613 447.508 C 163.415 447.994,162.740 449.477,162.114 450.804 C 160.308 454.626,160.152 454.984,160.289 454.984 C 160.580 454.984,162.876 450.541,163.562 448.651 C 164.283 446.665,164.323 445.765,163.613 447.508 M192.605 448.714 C 193.204 449.333,193.768 449.839,193.856 449.839 C 193.944 449.839,193.526 449.333,192.926 448.714 C 192.326 448.095,191.763 447.588,191.674 447.588 C 191.586 447.588,192.005 448.095,192.605 448.714 M245.911 455.145 C 245.197 463.125,237.514 475.501,230.224 480.413 C 223.504 484.941,220.268 485.617,205.145 485.653 C 195.258 485.676,191.426 484.876,187.350 481.939 C 186.141 481.067,185.244 480.503,185.357 480.686 C 188.063 485.065,198.592 486.893,214.234 485.700 C 224.237 484.936,226.422 484.144,233.360 478.765 C 238.795 474.551,246.525 459.938,246.238 454.424 L 246.141 452.572 245.911 455.145 M159.486 455.886 C 159.486 456.029,158.581 457.656,157.475 459.503 C 149.292 473.175,143.106 476.876,130.091 475.886 C 126.893 475.642,123.481 475.418,122.508 475.387 C 116.357 475.193,110.514 473.211,106.913 470.099 L 104.984 468.431 106.913 470.260 C 110.417 473.581,115.941 475.538,122.347 475.726 C 123.232 475.752,126.704 475.966,130.064 476.201 C 137.842 476.747,139.473 476.509,144.310 474.126 C 149.014 471.809,154.578 466.248,156.378 462.066 C 156.570 461.619,157.254 460.458,157.899 459.486 C 159.487 457.089,160.213 455.627,159.815 455.627 C 159.634 455.627,159.486 455.744,159.486 455.886 " stroke="none" fill="#142024" fill-rule="evenodd"></path><path id="path4" d="M71.483 63.264 C 71.146 63.573,71.065 63.694,71.304 63.532 C 71.543 63.370,72.273 63.133,72.927 63.006 C 74.101 62.778,74.103 62.774,73.106 62.738 C 72.548 62.717,71.823 62.952,71.483 63.264 M76.619 67.363 C 76.622 68.248,76.684 68.571,76.758 68.082 C 76.832 67.594,76.830 66.870,76.754 66.475 C 76.677 66.079,76.617 66.479,76.619 67.363 M68.891 69.614 C 68.895 70.322,68.961 70.573,69.038 70.173 C 69.115 69.773,69.112 69.194,69.031 68.887 C 68.951 68.580,68.888 68.907,68.891 69.614 M166.796 98.725 C 162.122 99.893,157.310 103.865,150.322 112.322 C 147.607 115.608,146.225 117.033,145.659 117.130 L 144.855 117.267 145.659 117.310 C 146.324 117.346,147.181 116.490,150.614 112.358 C 161.680 99.041,168.693 95.875,175.097 101.306 C 176.359 102.376,176.361 102.377,175.459 101.390 C 173.422 99.164,169.664 98.008,166.796 98.725 M205.788 131.728 C 202.054 131.893,196.983 132.480,195.338 132.937 C 193.167 133.539,193.860 133.551,196.624 132.958 C 207.802 130.559,220.696 131.951,225.299 136.053 L 226.849 137.435 225.563 136.061 C 222.096 132.359,216.958 131.233,205.788 131.728 M54.107 148.272 C 50.728 152.240,46.543 157.633,45.086 159.897 L 43.891 161.755 39.657 161.665 C 35.560 161.578,35.397 161.601,34.593 162.355 C 33.143 163.715,34.042 166.239,35.976 166.237 C 36.261 166.237,35.989 165.984,35.370 165.675 C 33.988 164.984,33.705 163.723,34.707 162.720 C 35.311 162.117,35.756 162.058,39.693 162.058 L 44.017 162.058 45.240 160.211 C 48.717 154.959,56.564 145.578,57.316 145.774 C 57.625 145.855,57.798 145.790,57.699 145.629 C 57.263 144.924,56.447 145.524,54.107 148.272 M58.199 146.131 C 58.199 146.219,58.928 146.661,59.819 147.112 L 61.439 147.933 60.226 149.449 C 59.560 150.283,57.990 152.122,56.739 153.537 C 53.458 157.247,52.307 158.743,50.960 161.050 C 49.354 163.800,47.636 165.456,45.753 166.069 C 44.513 166.473,44.432 166.538,45.338 166.402 C 47.311 166.104,48.888 164.673,51.447 160.857 C 52.773 158.879,54.727 156.288,55.788 155.098 C 59.441 151.002,61.717 148.139,61.543 147.858 C 61.334 147.520,58.199 145.901,58.199 146.131 M102.010 154.897 L 103.215 155.023 103.293 164.569 C 103.336 169.820,103.371 174.984,103.372 176.045 C 103.374 178.373,102.775 179.932,101.644 180.547 C 101.182 180.798,100.965 181.009,101.162 181.016 C 103.475 181.099,103.774 179.279,103.603 166.158 L 103.452 154.662 102.128 154.716 L 100.804 154.770 102.010 154.897 M98.316 165.669 L 98.232 176.354 96.785 176.200 C 91.614 175.648,89.711 176.219,89.711 178.322 C 89.711 179.766,90.943 180.722,92.728 180.664 L 94.051 180.621 92.484 180.404 C 87.778 179.751,89.556 175.978,94.373 176.394 C 95.788 176.516,97.307 176.632,97.749 176.652 L 98.553 176.688 98.638 166.017 L 98.722 155.346 99.763 155.216 C 100.786 155.089,100.783 155.086,99.602 155.035 L 98.401 154.984 98.316 165.669 M224.666 158.050 C 224.012 159.370,223.547 160.450,223.632 160.450 C 223.847 160.450,226.113 155.909,225.970 155.766 C 225.906 155.702,225.319 156.730,224.666 158.050 M123.662 160.432 C 124.207 160.562,124.859 160.775,125.108 160.905 C 125.358 161.035,125.282 160.913,124.939 160.635 C 124.595 160.356,123.944 160.143,123.492 160.162 C 122.735 160.192,122.749 160.214,123.662 160.432 M38.032 166.475 C 38.878 166.541,40.180 166.540,40.926 166.473 C 41.672 166.405,40.981 166.351,39.389 166.352 C 37.797 166.353,37.187 166.408,38.032 166.475 M218.469 168.383 C 217.973 169.032,217.732 169.462,217.933 169.338 C 218.345 169.084,219.737 167.203,219.513 167.203 C 219.434 167.203,218.964 167.734,218.469 168.383 M129.044 169.936 C 129.046 171.174,129.104 171.641,129.174 170.974 C 129.243 170.306,129.242 169.294,129.171 168.723 C 129.100 168.152,129.043 168.698,129.044 169.936 M113.926 170.257 C 113.928 171.318,113.988 171.714,114.059 171.136 C 114.131 170.558,114.129 169.690,114.056 169.206 C 113.983 168.723,113.924 169.196,113.926 170.257 M25.284 170.177 L 24.705 171.222 25.368 170.418 C 25.956 169.705,26.217 169.132,25.954 169.132 C 25.903 169.132,25.602 169.602,25.284 170.177 M217.403 170.900 C 217.388 171.077,217.577 171.945,217.823 172.830 C 218.069 173.714,218.272 174.148,218.275 173.794 C 218.279 173.110,217.450 170.356,217.403 170.900 M23.135 173.986 C 22.766 174.711,22.518 175.359,22.586 175.426 C 22.653 175.493,23.023 174.901,23.408 174.109 C 24.284 172.305,24.047 172.198,23.135 173.986 M128.038 175.026 C 127.512 176.479,126.508 177.737,125.270 178.492 C 124.723 178.825,124.452 179.098,124.667 179.098 C 125.763 179.102,128.872 175.201,128.548 174.230 C 128.489 174.054,128.260 174.412,128.038 175.026 M219.046 179.100 C 219.046 179.719,219.112 179.972,219.193 179.662 C 219.274 179.353,219.274 178.846,219.193 178.537 C 219.112 178.227,219.046 178.481,219.046 179.100 M121.469 179.333 C 122.047 179.404,122.915 179.403,123.398 179.329 C 123.881 179.256,123.408 179.198,122.347 179.199 C 121.286 179.201,120.891 179.261,121.469 179.333 M95.418 180.934 C 95.816 181.011,96.467 181.011,96.865 180.934 C 97.263 180.858,96.937 180.795,96.141 180.795 C 95.346 180.795,95.020 180.858,95.418 180.934 M219.345 181.350 C 219.315 182.020,220.046 182.719,223.712 185.531 C 226.133 187.387,229.349 190.137,230.858 191.640 C 232.919 193.693,233.242 193.938,232.156 192.626 C 230.720 190.891,227.744 188.306,222.435 184.181 C 220.714 182.844,219.610 181.746,219.522 181.287 C 219.385 180.572,219.379 180.575,219.345 181.350 M98.959 181.256 C 99.359 181.333,99.937 181.330,100.245 181.250 C 100.552 181.169,100.225 181.106,99.518 181.110 C 98.810 181.114,98.559 181.179,98.959 181.256 M18.489 186.174 C 18.367 186.729,18.334 187.251,18.416 187.333 C 18.498 187.415,18.657 187.020,18.770 186.455 C 19.038 185.115,18.778 184.855,18.489 186.174 M17.726 189.198 C 17.527 189.990,17.375 190.900,17.390 191.220 C 17.405 191.539,17.624 190.946,17.876 189.902 C 18.129 188.858,18.280 187.948,18.212 187.880 C 18.144 187.812,17.926 188.405,17.726 189.198 M16.567 195.563 C 16.266 197.561,16.082 199.630,16.160 200.161 C 16.285 201.009,16.308 200.975,16.351 199.878 C 16.377 199.191,16.628 197.190,16.908 195.429 C 17.187 193.669,17.349 192.161,17.266 192.079 C 17.184 191.996,16.869 193.564,16.567 195.563 M25.520 193.254 C 25.050 193.965,24.722 194.601,24.792 194.667 C 24.862 194.733,25.312 194.152,25.791 193.374 C 26.884 191.604,26.674 191.511,25.520 193.254 M61.325 194.293 C 60.722 195.044,60.123 195.876,59.994 196.141 C 59.865 196.407,60.092 196.190,60.499 195.659 C 60.905 195.129,61.629 194.297,62.106 193.810 C 62.583 193.324,62.849 192.926,62.698 192.926 C 62.546 192.926,61.929 193.541,61.325 194.293 M64.826 193.875 C 65.023 194.149,65.344 194.662,65.540 195.016 C 65.736 195.370,65.901 195.486,65.907 195.275 C 65.912 195.064,65.591 194.550,65.193 194.134 C 64.795 193.718,64.630 193.601,64.826 193.875 M31.586 195.498 C 31.586 196.117,31.652 196.371,31.733 196.061 C 31.814 195.752,31.814 195.245,31.733 194.936 C 31.652 194.626,31.586 194.879,31.586 195.498 M66.326 198.714 C 66.326 199.510,66.388 199.835,66.465 199.437 C 66.542 199.039,66.542 198.388,66.465 197.990 C 66.388 197.592,66.326 197.918,66.326 198.714 M31.586 199.678 C 31.586 200.297,31.652 200.551,31.733 200.241 C 31.814 199.932,31.814 199.425,31.733 199.116 C 31.652 198.806,31.586 199.059,31.586 199.678 M15.873 204.341 C 15.874 206.109,15.928 206.792,15.993 205.857 C 16.058 204.923,16.058 203.476,15.992 202.642 C 15.926 201.808,15.872 202.572,15.873 204.341 M66.326 203.215 C 66.326 204.011,66.388 204.337,66.465 203.939 C 66.542 203.541,66.542 202.890,66.465 202.492 C 66.388 202.094,66.326 202.420,66.326 203.215 M65.437 206.744 C 65.326 207.093,64.863 207.672,64.407 208.030 C 63.952 208.389,63.730 208.682,63.915 208.682 C 64.304 208.682,65.916 206.848,65.916 206.406 C 65.916 205.893,65.647 206.083,65.437 206.744 M15.873 213.344 C 15.874 215.113,15.928 215.795,15.993 214.861 C 16.058 213.926,16.058 212.479,15.992 211.645 C 15.926 210.811,15.872 211.576,15.873 213.344 M233.918 211.789 C 233.609 212.260,232.833 213.250,232.193 213.989 C 231.344 214.970,231.442 214.906,232.558 213.752 C 233.948 212.314,234.956 210.932,234.614 210.932 C 234.540 210.932,234.227 211.318,233.918 211.789 M16.252 218.971 C 16.424 221.645,17.350 227.130,17.589 226.891 C 17.673 226.808,17.574 225.934,17.370 224.950 C 17.165 223.966,16.795 221.675,16.547 219.860 C 16.145 216.919,16.113 216.822,16.252 218.971 M214.949 229.024 C 214.825 230.511,214.782 232.005,214.854 232.343 C 214.925 232.681,215.089 231.528,215.219 229.779 C 215.348 228.031,215.390 226.537,215.314 226.460 C 215.237 226.384,215.073 227.538,214.949 229.024 M17.700 227.667 C 17.662 228.913,21.074 239.162,21.414 238.822 C 21.485 238.751,21.172 237.781,20.718 236.666 C 20.265 235.550,19.404 232.958,18.805 230.904 C 18.205 228.851,17.708 227.394,17.700 227.667 M214.507 234.003 L 214.469 234.727 221.676 234.727 C 231.578 234.727,235.145 235.484,238.439 238.284 C 239.504 239.190,239.580 239.219,238.907 238.462 C 236.195 235.416,233.139 234.647,223.088 234.480 C 215.749 234.358,214.810 234.283,214.685 233.811 C 214.589 233.449,214.532 233.510,214.507 234.003 M21.551 239.350 C 21.531 240.073,24.781 245.646,26.758 248.279 C 27.968 249.891,29.678 252.250,30.557 253.521 C 31.435 254.792,33.180 256.907,34.435 258.221 L 36.715 260.611 34.720 258.360 C 33.622 257.122,32.061 255.169,31.250 254.019 C 30.439 252.870,28.669 250.443,27.318 248.627 C 25.966 246.810,24.117 243.916,23.210 242.196 C 22.302 240.475,21.556 239.195,21.551 239.350 M260.255 268.155 C 253.537 270.263,250.270 271.930,245.920 275.471 C 244.554 276.582,243.348 277.492,243.239 277.492 C 243.130 277.492,242.813 277.720,242.534 277.999 C 242.251 278.281,241.742 278.432,241.385 278.339 C 240.912 278.215,240.838 278.266,241.103 278.530 C 241.623 279.051,242.481 278.573,245.694 275.974 C 250.499 272.087,253.925 270.358,260.610 268.444 C 265.484 267.049,267.593 267.328,271.061 269.829 C 272.825 271.100,272.826 271.101,271.543 269.957 C 268.391 267.145,265.132 266.625,260.255 268.155 M97.629 275.603 C 97.361 276.943,97.620 277.203,97.910 275.884 C 98.032 275.328,98.065 274.807,97.983 274.725 C 97.901 274.643,97.742 275.038,97.629 275.603 M97.099 277.197 C 97.095 277.271,96.882 279.936,96.626 283.119 C 96.370 286.302,96.156 289.160,96.151 289.469 C 96.143 289.962,95.750 290.040,93.006 290.094 L 89.871 290.155 92.926 290.354 C 94.606 290.463,95.756 290.580,95.481 290.614 C 94.832 290.694,93.655 293.703,90.426 303.537 C 87.912 311.192,86.729 314.506,83.770 322.186 C 82.987 324.220,82.052 327.057,81.692 328.491 C 81.333 329.924,80.458 332.545,79.748 334.315 C 78.386 337.710,78.271 338.280,78.761 339.197 C 79.007 339.656,78.724 340.101,77.289 341.507 C 76.312 342.464,74.908 343.971,74.171 344.855 C 73.433 345.739,74.640 344.654,76.852 342.444 C 82.831 336.469,86.730 333.118,90.933 330.339 C 94.460 328.006,94.516 327.733,95.023 310.289 C 95.128 306.664,95.420 301.600,95.671 299.035 C 95.923 296.471,96.200 293.215,96.287 291.801 C 96.375 290.386,96.661 286.557,96.923 283.292 C 97.185 280.028,97.333 277.290,97.253 277.210 C 97.172 277.129,97.103 277.124,97.099 277.197 M88.026 290.581 C 88.426 290.658,89.005 290.655,89.312 290.575 C 89.620 290.494,89.293 290.431,88.585 290.435 C 87.878 290.438,87.626 290.504,88.026 290.581 M309.486 291.114 C 304.052 292.880,300.866 294.928,295.981 299.796 L 291.479 304.281 295.981 299.957 C 304.947 291.343,313.587 288.513,318.245 292.663 L 319.775 294.026 318.489 292.635 C 316.220 290.180,313.679 289.751,309.486 291.114 M80.225 291.961 C 79.406 292.314,80.251 292.314,81.350 291.961 C 81.997 291.754,82.028 291.702,81.511 291.695 C 81.158 291.689,80.579 291.809,80.225 291.961 M363.054 309.019 C 358.630 310.177,352.285 313.643,347.386 317.578 C 345.771 318.875,344.288 319.936,344.090 319.936 C 343.892 319.936,343.730 320.072,343.730 320.239 C 343.730 320.406,343.115 320.911,342.363 321.361 C 341.612 321.812,341.165 322.182,341.371 322.183 C 341.725 322.186,343.289 321.047,349.414 316.327 C 358.372 309.423,368.499 306.966,372.587 310.703 C 372.984 311.067,373.385 311.288,373.477 311.196 C 373.730 310.943,371.264 309.321,369.872 308.824 C 368.175 308.219,365.855 308.285,363.054 309.019 M51.765 309.402 C 50.825 310.817,50.752 311.079,51.564 310.129 C 52.281 309.290,52.602 308.682,52.328 308.682 C 52.282 308.682,52.029 309.006,51.765 309.402 M45.714 320.167 C 45.519 320.659,45.280 321.495,45.183 322.026 C 45.086 322.556,45.289 322.197,45.633 321.228 C 46.280 319.411,46.343 318.575,45.714 320.167 M43.839 327.221 C 43.089 331.700,43.634 335.945,45.194 337.781 L 46.014 338.746 45.183 337.428 C 43.924 335.431,43.541 332.762,43.979 329.025 C 44.365 325.725,44.278 324.601,43.839 327.221 M93.370 332.958 C 93.371 335.080,93.423 335.907,93.486 334.794 C 93.549 333.682,93.548 331.946,93.485 330.936 C 93.421 329.926,93.370 330.836,93.370 332.958 M378.457 335.710 C 378.457 336.251,378.582 336.616,378.735 336.522 C 378.994 336.362,378.853 334.727,378.580 334.727 C 378.512 334.727,378.457 335.169,378.457 335.710 M59.692 337.194 C 59.894 337.340,61.024 339.367,62.205 341.698 C 63.385 344.029,64.594 346.127,64.892 346.361 C 65.383 346.745,65.391 346.730,64.976 346.202 C 64.724 345.881,63.552 343.718,62.372 341.395 C 61.192 339.072,60.023 337.116,59.775 337.050 C 59.467 336.967,59.441 337.013,59.692 337.194 M93.679 339.389 C 93.681 340.804,93.737 341.343,93.805 340.586 C 93.873 339.830,93.872 338.673,93.803 338.014 C 93.734 337.356,93.678 337.974,93.679 339.389 M93.987 343.730 C 93.987 344.703,94.047 345.100,94.121 344.614 C 94.195 344.128,94.195 343.332,94.121 342.846 C 94.047 342.359,93.987 342.757,93.987 343.730 M94.293 346.785 C 94.297 347.492,94.363 347.743,94.440 347.344 C 94.517 346.944,94.514 346.365,94.433 346.057 C 94.353 345.750,94.290 346.077,94.293 346.785 M94.615 349.357 C 94.618 350.064,94.684 350.316,94.761 349.916 C 94.838 349.516,94.835 348.937,94.755 348.630 C 94.674 348.322,94.611 348.650,94.615 349.357 M394.451 352.733 C 394.545 353.883,394.674 354.883,394.738 354.957 C 394.975 355.228,394.802 351.908,394.546 351.286 C 394.391 350.909,394.352 351.506,394.451 352.733 M330.707 375.109 L 329.743 375.937 330.788 375.246 C 331.363 374.865,331.833 374.492,331.833 374.415 C 331.833 374.175,331.697 374.259,330.707 375.109 M321.362 382.074 L 320.418 383.119 321.463 382.175 C 322.038 381.655,322.508 381.185,322.508 381.130 C 322.508 380.881,322.243 381.100,321.362 382.074 M317.524 385.439 C 316.109 386.786,315.675 387.298,316.559 386.577 C 318.114 385.309,320.532 382.942,320.240 382.974 C 320.161 382.982,318.939 384.092,317.524 385.439 M309.000 393.489 L 303.376 399.196 309.084 393.573 C 312.223 390.480,314.791 387.911,314.791 387.865 C 314.791 387.636,314.224 388.186,309.000 393.489 M105.182 397.781 C 104.985 398.347,104.833 399.114,104.845 399.485 C 104.857 399.857,105.061 399.437,105.299 398.553 C 105.791 396.721,105.719 396.241,105.182 397.781 M301.113 401.045 C 297.525 404.795,296.329 406.109,296.503 406.109 C 296.598 406.109,298.159 404.518,299.971 402.572 C 301.783 400.627,303.214 399.035,303.151 399.035 C 303.088 399.035,302.171 399.940,301.113 401.045 M104.583 401.447 C 104.586 402.154,104.652 402.406,104.729 402.006 C 104.806 401.606,104.803 401.027,104.723 400.720 C 104.642 400.412,104.579 400.740,104.583 401.447 M104.298 405.949 C 104.298 407.717,104.352 408.399,104.417 407.465 C 104.483 406.531,104.482 405.084,104.416 404.250 C 104.350 403.416,104.297 404.180,104.298 405.949 M294.287 407.519 C 291.801 409.525,291.488 409.986,293.796 408.243 C 295.475 406.976,296.485 406.042,296.080 406.131 C 296.025 406.143,295.219 406.768,294.287 407.519 M104.540 410.129 C 104.490 411.894,106.536 419.938,106.933 419.541 C 106.996 419.477,106.686 418.288,106.245 416.896 C 105.803 415.505,105.245 413.196,105.004 411.765 C 104.764 410.335,104.555 409.598,104.540 410.129 M107.074 420.050 C 107.074 420.412,109.551 425.187,110.100 425.884 C 110.379 426.238,109.861 425.080,108.950 423.312 C 107.200 419.917,107.074 419.697,107.074 420.050 M110.890 427.170 C 111.063 427.524,112.652 429.507,114.420 431.578 C 118.926 436.854,121.205 440.361,120.705 441.249 C 120.539 441.542,120.583 441.549,120.879 441.276 C 121.652 440.564,119.540 437.191,114.955 431.819 C 113.314 429.898,111.658 427.921,111.274 427.426 C 110.890 426.932,110.717 426.817,110.890 427.170 M166.123 433.923 C 166.242 434.277,166.438 435.796,166.559 437.299 L 166.779 440.032 166.816 437.621 C 166.839 436.082,166.681 434.860,166.379 434.244 C 166.119 433.714,166.004 433.569,166.123 433.923 M181.672 437.460 C 183.167 438.963,184.463 440.193,184.552 440.193 C 184.640 440.193,183.489 438.963,181.994 437.460 C 180.498 435.957,179.202 434.727,179.114 434.727 C 179.025 434.727,180.177 435.957,181.672 437.460 M188.944 444.381 C 193.500 449.178,194.456 450.375,195.040 452.009 C 195.310 452.768,195.475 452.970,195.484 452.555 C 195.510 451.369,193.757 449.106,189.365 444.655 L 185.048 440.279 188.944 444.381 M165.338 443.151 C 164.952 444.063,164.688 444.860,164.751 444.922 C 164.813 444.985,165.183 444.294,165.573 443.387 C 165.964 442.480,166.228 441.683,166.160 441.616 C 166.093 441.549,165.723 442.239,165.338 443.151 M114.228 445.375 C 113.132 446.077,112.778 446.548,113.746 446.016 C 114.484 445.610,115.639 444.716,115.434 444.710 C 115.346 444.708,114.803 445.007,114.228 445.375 M159.088 450.294 C 148.517 459.545,135.565 466.344,120.171 470.721 C 112.507 472.901,110.658 473.633,112.821 473.633 C 113.153 473.633,114.040 473.851,114.792 474.116 C 116.539 474.733,119.874 475.290,122.347 475.378 C 123.408 475.417,126.893 475.646,130.091 475.888 C 143.115 476.874,149.398 473.109,157.464 459.486 C 158.564 457.629,159.645 455.901,159.867 455.645 C 160.088 455.390,160.298 454.989,160.332 454.755 C 160.367 454.520,160.926 453.303,161.574 452.049 C 164.547 446.305,164.049 445.952,159.088 450.294 M244.922 453.141 C 244.429 453.713,243.068 455.482,241.899 457.074 C 236.503 464.420,233.882 466.909,226.273 471.919 C 215.801 478.812,212.004 479.979,193.430 482.008 C 191.733 482.194,190.341 482.518,190.028 482.802 C 189.736 483.065,189.400 483.210,189.280 483.122 C 189.160 483.035,189.201 483.129,189.371 483.332 C 189.542 483.534,190.124 483.687,190.666 483.672 C 191.208 483.657,191.569 483.777,191.468 483.940 C 191.367 484.104,191.515 484.149,191.796 484.041 C 192.077 483.933,192.558 484.072,192.865 484.350 C 193.242 484.691,194.273 484.902,196.022 484.996 C 197.451 485.073,198.930 485.302,199.308 485.504 C 200.526 486.156,217.169 485.431,222.026 484.514 C 232.030 482.624,245.105 466.394,245.880 454.904 C 246.096 451.702,246.123 451.752,244.922 453.141 M195.177 454.372 C 195.177 454.565,194.876 455.180,194.507 455.738 L 193.838 456.752 194.666 455.788 C 195.414 454.918,195.755 454.019,195.338 454.019 C 195.249 454.019,195.177 454.178,195.177 454.372 M104.658 455.707 C 103.722 458.294,103.537 459.262,103.537 461.559 C 103.537 463.867,104.302 467.510,104.702 467.109 C 104.772 467.039,104.611 466.362,104.344 465.605 C 103.641 463.610,103.710 459.373,104.484 457.124 C 104.828 456.124,105.041 455.305,104.957 455.305 C 104.872 455.305,104.738 455.486,104.658 455.707 M183.779 467.693 C 183.519 468.316,183.229 469.365,183.136 470.024 C 182.976 471.146,182.993 471.131,183.405 469.775 C 183.647 468.979,184.004 467.930,184.198 467.444 C 184.391 466.957,184.483 466.559,184.402 466.559 C 184.320 466.559,184.040 467.070,183.779 467.693 M105.075 468.006 C 105.261 468.360,105.963 469.156,106.634 469.775 C 107.743 470.797,106.798 469.581,104.886 467.524 C 104.803 467.436,104.888 467.653,105.075 468.006 M182.770 473.503 C 182.879 476.116,183.860 478.567,185.523 480.386 L 186.553 481.511 185.553 480.170 C 184.068 478.181,183.237 476.059,182.940 473.503 L 182.675 471.222 182.770 473.503 " stroke="none" fill="#045434" fill-rule="evenodd"></path></g></svg>